<?xml version="1.0" encoding="UTF-8"?>
<svg width="1005px" height="1120px" viewBox="0 0 1005 1120" version="1.1" xmlns="http://www.w3.org/2000/svg" xmlns:xlink="http://www.w3.org/1999/xlink">
    <title>agile</title>
    <g id="agile" stroke="none" stroke-width="1" fill="none" fill-rule="evenodd">
        <g id="Group-3" transform="translate(155.000000, 6.000000)">
            <polyline id="Fill-161" fill="#D1E9F1" points="576.381971 329.215909 644.590909 368.280859 576.375 407.318182 508.159091 368.253232 576.381971 329.215909"></polyline>
            <polyline id="Fill-162" fill="#73ACD1" points="644.590909 812.841414 576.375 852.204545 576.375 407.135859 644.590909 367.772727 644.590909 812.841414"></polyline>
            <polyline id="Fill-163" fill="#A7C8E0" points="576.375 852.204545 508.159091 812.841414 508.159091 367.772727 576.375 407.135859 576.375 852.204545"></polyline>
            <polyline id="Fill-164" fill="#D1E9F1" points="463.67394 473.556818 531.886364 512.621768 463.666969 551.659091 395.454545 512.594141 463.67394 473.556818"></polyline>
            <polyline id="Fill-165" fill="#73ACD1" points="531.886364 875.181615 463.670455 914.488636 463.670455 552.402341 531.886364 513.102273 531.886364 875.181615"></polyline>
            <polyline id="Fill-166" fill="#A7C8E0" points="463.670455 914.488636 395.454545 875.181615 395.454545 513.102273 463.670455 552.402341 463.670455 914.488636"></polyline>
            <polyline id="Fill-167" fill="#D1E9F1" points="353.935304 638.659091 422.147727 677.727496 353.928332 716.761364 285.715909 677.699866 353.935304 638.659091"></polyline>
            <polyline id="Fill-168" fill="#73ACD1" points="422.147727 937.402084 353.931818 976.772727 353.931818 716.586552 422.147727 677.215909 422.147727 937.402084"></polyline>
            <polyline id="Fill-169" fill="#A7C8E0" points="353.931818 976.772727 285.715909 937.402084 285.715909 677.215909 353.931818 716.586552 353.931818 976.772727"></polyline>
            <polyline id="Fill-170" fill="#D1E9F1" points="241.234244 814.636364 309.443182 853.701314 241.227273 892.738636 173.011364 853.673686 241.234244 814.636364"></polyline>
            <polyline id="Fill-171" fill="#D1E9F1" points="416.683562 1001.48864 413.25 995.413944 689.035371 839.25041 689.035371 282.75 696 282.75 696 843.323453 416.683562 1001.48864"></polyline>
            <polyline id="Fill-172" fill="#73ACD1" points="309.443182 1000.87249 241.227273 1040.04545 241.227273 893.354778 309.443182 854.181818 309.443182 1000.87249"></polyline>
            <polyline id="Fill-173" fill="#A7C8E0" points="241.227273 1040.04545 173.011364 1000.87249 173.011364 854.181818 241.227273 893.354778 241.227273 1040.04545"></polyline>
            <polyline id="Fill-174" fill="#1B9790" points="268.015337 559.939271 367.272086 617.838351 367.272086 557.52071 367.25816 557.51374 585.436389 284.362786 636.589756 317.943834 645.579545 319.11478 614.982228 60.2591203 605.393583 59.3181818 418.007647 187.606431 481.73697 224.43546 263.809424 497.168219 268.878802 500.130433 263.809424 497.168219 263.809424 557.485861 264.011364 557.604349 175.35992 669.116013 180.429298 672.071257 175.35992 669.116013 175.35992 728.855152 175.304212 728.827272 86.6527683 868.295264 91.75 871.271418 86.6527683 868.302234 60.2752905 1000.17999 0.988636364 1027.16053 4.24752221 1031.28672 134.080699 1107.27273 190.108467 1076.17297 190.108467 928.654725 190.09454 928.640785 278.481374 789.584018 278.822582 789.786146 278.822582 729.468504 278.808655 729.461534 367.432245 617.97775 268.015337 559.939271"></polyline>
            <polyline id="Fill-175" fill="#56BBB7" points="139.599733 711.818182 269.897727 787.495278 180.718449 926.352273 50.4204545 850.668237 139.599733 711.818182"></polyline>
            <polyline id="Fill-176" fill="#26B2A9" points="180.920455 1075.63636 52.3977273 999.670382 52.3977273 852.204545 180.920455 928.170528 180.920455 1075.63636"></polyline>
            <polyline id="Fill-177" fill="#56BBB7" points="227.58837 540.784091 357.886364 616.525064 268.707085 727.636364 138.409091 651.89539 227.58837 540.784091"></polyline>
            <polyline id="Fill-178" fill="#26B2A9" points="268.909091 788.931818 140.386364 712.871271 140.386364 652.5 268.909091 728.560547 268.909091 788.931818"></polyline>
            <polyline id="Fill-179" fill="#56BBB7" points="453.88846 197.727273 583.295455 273.608751 358.770631 556.602273 229.363636 480.713837 453.88846 197.727273"></polyline>
            <polyline id="Fill-180" fill="#26B2A9" points="357.886364 617.897727 229.363636 541.83718 229.363636 481.465909 357.886364 557.526456 357.886364 617.897727"></polyline>
            <polyline id="Fill-181" fill="#56BBB7" points="180.920455 1075.93333 51.0293831 999.511364 0 1027.88485 129.891071 1104.30682 180.920455 1075.93333"></polyline>
            <polyline id="Fill-182" fill="#56BBB7" points="570.022272 279.703701 636.681818 318.340909 606.162236 59.3181818 383.590909 171.101065 450.257403 209.738273 570.022272 279.703701"></polyline>
            <path d="M489.351893,42.8305081 C488.069375,42.8305081 486.842618,42.118921 486.22924,40.8980607 C485.364934,39.1749037 486.061955,37.0820004 487.783596,36.2169338 L498.169205,31.0195573 C499.890846,30.1475143 501.981908,30.8660777 502.846214,32.5822584 C503.71052,34.3054154 503.006529,36.3983187 501.284888,37.2633854 L490.906249,42.4607618 L489.351893,42.8305081 Z M458.181126,58.4365901 C456.898608,58.4365901 455.671851,57.725003 455.058473,56.5111191 C454.201137,54.787962 454.898158,52.6950588 456.619799,51.8299921 L469.0895,45.586164 C470.804171,44.7210974 472.902204,45.4326845 473.766509,47.1488651 C474.623845,48.8720222 473.926824,50.9649254 472.205183,51.8299921 L459.735482,58.0668438 L458.181126,58.4365901 Z M427.017329,74.0426721 C425.734811,74.0426721 424.508054,73.3380613 423.894676,72.1172011 C423.03037,70.394044 423.727391,68.3011408 425.456002,67.4360741 L437.918733,61.1992224 C439.640374,60.3271794 441.731436,61.0387665 442.595742,62.7549471 C443.460048,64.4781042 442.756057,66.5710074 441.034416,67.4360741 L428.571685,73.6799022 L427.017329,74.0426721 Z M395.846562,89.6557304 C394.564044,89.6557304 393.337287,88.9441433 392.723909,87.7232831 C391.866573,86.000126 392.563594,83.9072228 394.285235,83.0421561 L406.747966,76.8053044 C408.469607,75.9402377 410.560669,76.6448485 411.424975,78.3610291 C412.289281,80.0911625 411.59226,82.1770894 409.870619,83.0421561 L397.400918,89.2859842 L395.846562,89.6557304 Z M364.675795,105.261812 C363.400247,105.261812 362.16652,104.557202 361.560112,103.336341 C360.695806,101.606208 361.392827,99.5202811 363.114468,98.6552144 L375.584169,92.40441 C377.29884,91.532367 379.396872,92.2439541 380.261178,93.9671111 C381.118514,95.6902682 380.421493,97.7831714 378.699852,98.6482381 L366.230151,104.892066 L364.675795,105.261812 Z M333.511998,120.867894 C332.22948,120.867894 331.002723,120.163284 330.389345,118.942423 C329.525039,117.219266 330.22206,115.126363 331.950671,114.261296 L344.420372,108.010492 C346.142013,107.145425 348.226105,107.857012 349.090411,109.573193 C349.954717,111.29635 349.257696,113.389253 347.536055,114.25432 L335.066354,120.498148 L333.511998,120.867894 Z M302.341231,136.480953 C301.065683,136.480953 299.838926,135.776342 299.225548,134.548505 C298.361242,132.825348 299.058263,130.732445 300.779904,129.867378 L313.249605,123.62355 C314.971246,122.751507 317.062308,123.449142 317.926614,125.179275 C318.78395,126.902432 318.086929,128.995335 316.365288,129.860402 L303.902557,136.111207 L302.341231,136.480953 Z M271.177434,152.087035 C269.894916,152.087035 268.668159,151.382424 268.054781,150.154587 C267.190475,148.43143 267.894466,146.345503 269.616107,145.480437 L282.078838,139.229632 C283.807449,138.364566 285.891541,139.069176 286.755847,140.792333 C287.620153,142.515491 286.923132,144.608394 285.194521,145.47346 L272.73179,151.717289 L271.177434,152.087035 Z M240.006667,167.693117 C238.724148,167.693117 237.497392,166.995482 236.884014,165.767646 C236.026678,164.044489 236.723699,161.951585 238.44534,161.086519 L250.915041,154.835714 C252.636682,153.970648 254.720774,154.668282 255.58508,156.398415 C256.449386,158.121573 255.752365,160.214476 254.030724,161.079542 L241.561023,167.323371 L240.006667,167.693117 Z M262.004641,184.889805 L260.262089,184.42239 L248.18969,177.446046 C246.52381,176.48331 245.952253,174.348549 246.914142,172.681203 C247.86906,171.013857 250.008914,170.43482 251.674794,171.404532 L263.747193,178.380876 C265.420042,179.343612 265.991599,181.478373 265.022741,183.145719 C264.381482,184.261934 263.210487,184.889805 262.004641,184.889805 Z M292.185639,202.323689 L290.443087,201.856274 L278.370688,194.87993 C276.704808,193.917195 276.133251,191.782433 277.09514,190.115087 C278.057028,188.447741 280.196882,187.861728 281.855791,188.838416 L293.92819,195.81476 C295.60104,196.777496 296.172597,198.912257 295.210709,200.579603 C294.562479,201.695818 293.391484,202.323689 292.185639,202.323689 Z M322.366636,219.76455 L320.624084,219.297135 L308.558656,212.320791 C306.885806,211.358055 306.314249,209.223294 307.276137,207.555948 C308.238026,205.888601 310.370909,205.309565 312.043759,206.279277 L324.109188,213.255621 C325.782038,214.218356 326.353595,216.353118 325.391706,218.020464 C324.743477,219.136679 323.572482,219.76455 322.366636,219.76455 Z M332.006433,241.126116 C331.24668,241.126116 330.486928,240.874968 329.845669,240.365694 C328.333134,239.165763 328.082206,236.975191 329.281082,235.468301 L337.443195,225.178193 L337.533807,225.003784 C338.509636,223.357367 340.586758,222.743449 342.245667,223.73409 L345.70289,225.764206 L343.32605,228.973324 L334.738754,239.800611 C334.055674,240.672654 333.038024,241.126116 332.006433,241.126116 Z M310.343029,268.452456 C309.583276,268.452456 308.823523,268.201308 308.182264,267.692035 C306.6767,266.492103 306.418802,264.301531 307.617678,262.794641 L316.281645,251.86271 C317.480521,250.341867 319.676136,250.090718 321.181701,251.297626 C322.687266,252.490581 322.945163,254.688129 321.746288,256.195019 L313.07535,267.126951 C312.39227,267.998994 311.374619,268.452456 310.343029,268.452456 Z M288.679624,295.77182 C287.926842,295.77182 287.160119,295.520672 286.51886,295.011399 C285.013295,293.811467 284.755398,291.620895 285.954273,290.114005 L294.625211,279.18905 C295.810146,277.675183 298.005762,277.424035 299.518297,278.623966 C301.023861,279.816921 301.281759,282.014469 300.082883,283.52136 L291.418916,294.446315 C290.728865,295.318358 289.711215,295.77182 288.679624,295.77182 Z M267.01622,323.09816 C266.256467,323.09816 265.496715,322.847012 264.855456,322.337739 C263.342921,321.137808 263.091993,318.947236 264.290869,317.440345 L272.961807,306.51539 C274.153712,304.994547 276.342357,304.743399 277.854892,305.950306 C279.367427,307.143261 279.618355,309.34081 278.419479,310.8477 L269.748541,321.772655 C269.065461,322.644698 268.047811,323.09816 267.01622,323.09816 Z M245.352816,350.417524 C244.593063,350.417524 243.83331,350.166376 243.192051,349.657103 C241.679516,348.457172 241.428589,346.2666 242.627465,344.759709 L251.291432,333.834754 C252.490308,332.320887 254.678953,332.069739 256.191488,333.26967 C257.697053,334.462625 257.94798,336.660174 256.749105,338.167064 L248.085137,349.092019 C247.402057,349.964062 246.384406,350.417524 245.352816,350.417524 Z M223.689411,377.743865 C222.929659,377.743865 222.169906,377.492716 221.528647,376.983443 C220.016112,375.783512 219.765185,373.59294 220.96406,372.086049 L229.628028,361.161094 C230.826904,359.640251 233.008578,359.389103 234.528084,360.596011 C236.033648,361.788965 236.284576,363.986514 235.09267,365.493404 L226.421733,376.418359 C225.738652,377.290402 224.721002,377.743865 223.689411,377.743865 Z M202.026007,405.070205 C201.266254,405.070205 200.506502,404.819056 199.865243,404.309783 C198.359678,403.109852 198.10178,400.91928 199.300656,399.41239 L207.964624,388.480458 C209.156529,386.966592 211.352144,386.715443 212.864679,387.915374 C214.370244,389.108329 214.621172,391.305878 213.429266,392.812768 L204.758328,403.744699 C204.075248,404.616743 203.057598,405.070205 202.026007,405.070205 Z M180.362603,432.389569 C179.60285,432.389569 178.843097,432.13842 178.194868,431.629147 C176.689303,430.429216 176.438376,428.238644 177.637252,426.731754 L186.301219,415.806799 C187.493125,414.285956 189.68874,414.034807 191.201275,415.241715 C192.70684,416.43467 192.957767,418.632218 191.758892,420.139108 L183.094924,431.064063 C182.404873,431.936106 181.387223,432.389569 180.362603,432.389569 Z M158.699198,459.715909 C157.939446,459.715909 157.179693,459.464761 156.531464,458.955488 C155.025899,457.755556 154.774972,455.564984 155.973847,454.058094 L164.637815,443.133139 C165.82972,441.619272 168.018366,441.368124 169.537871,442.568055 C171.043435,443.76101 171.294363,445.958558 170.095487,447.465449 L161.43152,458.390404 C160.741469,459.262447 159.723819,459.715909 158.699198,459.715909 L158.699198,459.715909 Z" id="Fill-183" fill="#DB4174"></path>
            <polyline id="Fill-184" fill="#DB4174" points="19.814345 883.840909 12.8522727 883.840909 12.8522727 840.418343 101.535149 701.068029 101.535149 639.299273 189.967391 528.19903 189.967391 467.627369 387.418723 218.895898 301.715613 169.439133 632.574173 3.95454545 635.693182 10.1766602 316.405586 169.877605 397.882717 216.898418 196.929463 470.049401 196.929463 530.634981 108.504184 641.735224 108.497222 703.093348 19.814345 842.443663 19.814345 883.840909"></polyline>
            <path d="M619.212569,36.5795455 C618.4859,36.5795455 617.75231,36.3389988 617.122531,35.8579056 C615.599986,34.6763971 615.309318,32.4548782 616.465068,30.8984 L633.842841,7.51585223 L599.800123,9.4473002 C597.76545,9.65954723 596.256746,8.06061961 596.152937,6.10794694 C596.049127,4.16234917 597.509386,2.48559764 599.412566,2.38654902 L640.936515,0.0306069962 C642.25144,-0.174565132 643.552524,0.674422985 644.189224,1.89838085 C644.819004,3.11526382 644.701353,4.60099303 643.884715,5.69760268 L621.973912,35.1787151 C621.295687,36.0913773 620.257589,36.5795455 619.212569,36.5795455" id="Fill-185" fill="#DB4174"></path>
            <path d="M26.6931818,893.57072 C26.6931818,899.91001 22.267391,902.464121 16.8068182,899.273251 C11.3462453,896.082381 6.92045455,888.356371 6.92045455,882.017082 C6.92045455,875.677792 11.3462453,873.130756 16.8068182,876.314551 C22.267391,879.505421 26.6931818,887.23143 26.6931818,893.57072" id="Fill-186" fill="#DB4174"></path>
        </g>
    </g>
</svg>