<?xml version="1.0" encoding="UTF-8"?>
<svg width="1005px" height="1120px" viewBox="0 0 1005 1120" version="1.1" xmlns="http://www.w3.org/2000/svg" xmlns:xlink="http://www.w3.org/1999/xlink">
    <title>cloud</title>
    <g id="cloud" stroke="none" stroke-width="1" fill="none" fill-rule="evenodd">
        <g id="Group-2" transform="translate(33.000000, 7.000000)">
            <path d="M708.779464,526.60405 C691.925214,516.864902 675.945206,511.823207 661.470042,510.840686 C661.484374,509.83665 661.606195,508.918675 661.606195,507.900296 C661.606195,364.610033 560.459195,190.001022 435.678981,117.904074 C335.341731,59.9281739 250.396882,86.0259351 220.930608,172.939584 C213.227241,167.073145 205.387721,161.608322 197.347556,156.96107 C115.075596,109.427143 48.3823529,147.480102 48.3823529,241.959878 C48.3823529,336.439655 115.075596,451.55954 197.347556,499.100638 C238.465621,522.86043 660.094185,766.482564 708.779464,794.609912 C773.222608,831.852471 825.462185,802.039778 825.462185,728.02799 C825.462185,654.023374 773.222608,563.839437 708.779464,526.60405" id="Fill-120" fill="#A7C8E0"></path>
            <polyline id="Fill-121" fill="#73ACD1" points="129.348739 514.432773 180.840858 485.940359 378.172269 309.443102 366.964907 298.193277 129.348739 514.432773"></polyline>
            <path d="M914.596554,782.016807 L908.749104,777.872133 C924.507123,755.614229 932.834007,726.235805 932.834007,692.934998 C932.834007,602.713046 871.34262,496.514738 792.846332,451.159957 C785.107059,446.692601 777.224467,442.827585 769.427866,439.686811 L767.407056,438.869349 L767.199242,436.703793 C752.315475,282.533393 648.250923,116.760773 519.764666,42.5295183 C479.147818,19.0669346 438.416313,7.17071629 398.716711,7.17071629 C362.55711,7.17071629 327.787711,17.3961577 298.163496,36.7570917 L294.243697,30.7552022 C325.03597,10.6341723 361.159741,0 398.716711,0 C439.691859,0 481.620085,12.2189006 523.347663,36.3125073 C653.087968,111.275175 758.277581,278.173597 774.121592,433.857019 C781.567058,436.969109 789.062687,440.697882 796.429328,444.950117 C876.932095,491.466553 940,600.389734 940,692.934998 C940,727.734484 931.221658,758.532711 914.596554,782.016807" id="Fill-122" fill="#D1E9F1"></path>
            <path d="M886.680672,692.332449 C886.680672,618.354757 834.454254,528.20363 770.027342,490.981788 C753.177337,481.246184 737.201355,476.199154 722.737001,475.22416 C722.744165,474.220489 722.865955,473.302848 722.865955,472.284839 C722.865955,329.046706 621.744432,154.50122 497.002813,82.4305018 C426.959234,41.9610694 365.978263,47.3880598 323.058033,76.0858698 L251.008501,117.243533 C210.294819,96.1019292 173.901101,96.2453107 148.260723,113.981604 L51.3445378,172.094132 C77.6010295,160.63078 112.081928,164.358699 149.865486,186.188535 C157.91079,190.841265 165.748335,196.3041 173.449761,202.161235 C202.908614,115.286376 287.832066,89.1909402 388.144043,147.152917 C512.885662,219.216466 614.014349,393.761953 614.014349,537.007255 C614.014349,538.025263 613.885395,538.935736 613.878231,539.946576 C628.342585,540.92157 644.318567,545.96143 661.168572,555.697035 C725.602648,592.926045 777.829067,683.070003 777.829067,757.054864 C777.829067,788.355049 768.451236,811.711898 752.783311,825.462185 L848.868459,769.471704 L848.746669,769.2638 C872.058708,758.237762 886.680672,731.475602 886.680672,692.332449" id="Fill-123" fill="#73ACD1"></path>
            <path d="M669.332089,552.941187 C652.484834,543.209005 636.511457,538.163749 622.049464,537.189098 C622.056627,536.18578 622.178397,535.268461 622.178397,534.25081 C622.178397,391.063027 521.073373,216.578896 396.352106,144.533512 C336.577298,110.005046 282.274982,105.332452 241.911765,125.563639 C281.25068,109.926214 332.157758,116.161118 387.828197,148.32462 C512.549464,220.362837 613.66165,394.846969 613.66165,538.041918 C613.66165,539.059569 613.532717,539.969721 613.525554,540.980206 C627.987548,541.954857 643.960924,546.992946 660.80818,556.725129 C725.22458,593.941052 777.44964,684.06049 777.44964,758.012178 C777.44964,795.421599 764.069252,821.507861 742.523101,833.361345 C769.011686,824.109321 785.966387,796.346084 785.966387,754.22107 C785.966387,680.269382 733.748489,590.149944 669.332089,552.941187" id="Fill-124" fill="#FFFFFE"></path>
            <path d="M149.144419,186.326457 C157.232415,191.013213 165.111549,196.515998 172.853843,202.415966 C173.768514,199.715124 174.7336,197.079275 175.756303,194.493977 C169.828947,190.18274 163.843973,186.059261 157.714958,182.513503 C117.591871,159.289148 81.1850855,156.407768 54.3067227,170.410263 C80.133574,161.000644 113.155357,165.492419 149.144419,186.326457" id="Fill-125" fill="#FFFFFE"></path>
            <path d="M660.389945,557.210204 C643.535695,547.471043 627.555687,542.429342 613.087689,541.453992 C613.094855,540.442783 613.223842,539.531978 613.223842,538.513597 C613.223842,395.215977 512.069676,220.60674 387.296628,148.51687 C286.959378,90.5337231 202.014529,116.63869 172.548255,203.545279 C164.844888,197.686005 157.005368,192.221174 148.958037,187.566745 C66.6932433,140.032756 0,178.092937 0,272.565664 C0,359.321647 56.2453279,463.440303 129.129928,516.697304 L367.382529,298.778206 L606.674188,794.184493 C632.930129,809.352626 652.091807,820.425722 660.389945,825.223585 C724.833089,862.459021 777.079832,832.646288 777.079832,758.641577 C777.079832,684.636865 724.833089,594.452811 660.389945,557.210204" id="Fill-126" fill="#D1E9F1"></path>
            <path d="M305.233771,555.154233 L305.233771,828.971554 L437.287237,905.305854 L437.287237,631.488533 L531.218487,685.791885 L371.264083,354.47479 L211.302521,500.850882 L305.233771,555.154233 Z M305.233771,945.619481 L437.287237,1021.95378 L437.287237,998.711632 L305.233771,922.370164 L305.233771,945.619481 Z M305.233771,901.571916 L437.287237,977.906217 L437.287237,923.660201 L305.233771,847.318733 L305.233771,901.571916 L305.233771,901.571916 Z" id="Fill-127" fill="#C42E5F"></path>
            <polyline id="Fill-128" fill="#C42E5F" points="515.112416 694.138655 531.218487 685.135258 370.968096 353.487395 354.47479 364.750609 515.112416 694.138655"></polyline>
            <polyline id="Fill-129" fill="#C42E5F" points="419.642857 1030.84034 436.428571 1022.0194 436.428571 999.243697 419.642857 1008.05761 419.642857 1030.84034"></polyline>
            <polyline id="Fill-130" fill="#C42E5F" points="419.642857 987.394958 436.428571 978.260576 436.428571 923.214286 419.642857 932.341395 419.642857 987.394958"></polyline>
            <polyline id="Fill-131" fill="#C42E5F" points="419.642857 914.327731 436.428571 905.346568 436.428571 631.932773 419.642857 640.913936 419.642857 914.327731"></polyline>
            <polyline id="Fill-132" fill="#E25B87" points="288.319328 931.184181 304.393421 922.226891 436.428571 998.192699 420.347321 1007.14286 288.319328 931.184181"></polyline>
            <polyline id="Fill-133" fill="#E25B87" points="288.319328 856.142164 304.393421 847.184874 436.428571 923.150682 420.347321 932.10084 288.319328 856.142164"></polyline>
            <path d="M500.609244,816.333331 C498.429076,816.333331 496.659664,814.736622 496.659664,812.753266 L496.659664,798.433006 C496.659664,796.45681 498.429076,794.852941 500.609244,794.852941 C502.797311,794.852941 504.558824,796.45681 504.558824,798.433006 L504.558824,812.753266 C504.558824,814.736622 502.797311,816.333331 500.609244,816.333331 Z M500.609244,852.133982 C498.429076,852.133982 496.659664,850.537273 496.659664,848.553917 L496.659664,834.233657 C496.659664,832.257461 498.429076,830.653592 500.609244,830.653592 C502.797311,830.653592 504.558824,832.257461 504.558824,834.233657 L504.558824,848.553917 C504.558824,850.537273 502.797311,852.133982 500.609244,852.133982 Z M500.609244,887.934632 C498.429076,887.934632 496.659664,886.337923 496.659664,884.354567 L496.659664,870.034307 C496.659664,868.058111 498.429076,866.454242 500.609244,866.454242 C502.797311,866.454242 504.558824,868.058111 504.558824,870.034307 L504.558824,884.354567 C504.558824,886.337923 502.797311,887.934632 500.609244,887.934632 Z M500.609244,923.735283 C498.429076,923.735283 496.659664,922.138574 496.659664,920.155218 L496.659664,905.834958 C496.659664,903.858762 498.429076,902.254893 500.609244,902.254893 C502.797311,902.254893 504.558824,903.858762 504.558824,905.834958 L504.558824,920.155218 C504.558824,922.138574 502.797311,923.735283 500.609244,923.735283 Z M500.609244,959.535933 C498.429076,959.535933 496.659664,957.939224 496.659664,955.955868 L496.659664,941.635608 C496.659664,939.659412 498.429076,938.055543 500.609244,938.055543 C502.797311,938.055543 504.558824,939.659412 504.558824,941.635608 L504.558824,955.955868 C504.558824,957.939224 502.797311,959.535933 500.609244,959.535933 Z M500.609244,995.336584 C498.429076,995.336584 496.659664,993.739875 496.659664,991.756519 L496.659664,977.436258 C496.659664,975.460063 498.429076,973.856193 500.609244,973.856193 C502.797311,973.856193 504.558824,975.460063 504.558824,977.436258 L504.558824,991.756519 C504.558824,993.739875 502.797311,995.336584 500.609244,995.336584 Z M500.609244,1031.13723 C498.429076,1031.13723 496.659664,1029.54053 496.659664,1027.55717 L496.659664,1013.23691 C496.659664,1011.26071 498.429076,1009.65684 500.609244,1009.65684 C502.797311,1009.65684 504.558824,1011.26071 504.558824,1013.23691 L504.558824,1027.55717 C504.558824,1029.54053 502.797311,1031.13723 500.609244,1031.13723 Z M500.609244,1066.38655 C498.429076,1066.38655 496.659664,1064.78269 496.659664,1062.80649 L496.659664,1049.03756 C496.659664,1047.06136 498.429076,1045.45749 500.609244,1045.45749 C502.797311,1045.45749 504.558824,1047.06136 504.558824,1049.03756 L504.558824,1062.80649 C504.558824,1064.78269 502.797311,1066.38655 500.609244,1066.38655 L500.609244,1066.38655 Z" id="Fill-134" fill="#26B2A9"></path>
            <path d="M465.063025,1105.88235 L245.861345,979.601242 L245.861345,878.589242 C245.861345,876.605807 247.461566,875.009034 249.449286,875.009034 C251.429829,875.009034 253.037227,876.605807 253.037227,878.589242 L253.037227,975.469682 L457.887143,1093.48051 L457.887143,709.567603 C457.887143,707.591328 459.49454,705.987395 461.475084,705.987395 C463.462803,705.987395 465.063025,707.591328 465.063025,709.567603 L465.063025,1105.88235" id="Fill-135" fill="#26B2A9"></path>
            <path d="M288.448057,564.033621 L288.448057,837.850941 L420.494365,914.185242 L420.494365,640.367921 L514.432773,694.671272 L354.471211,363.361345 L194.516807,509.730269 L288.448057,564.033621 Z M288.448057,954.506036 L420.494365,1030.84034 L420.494365,1007.59102 L288.448057,931.256719 L288.448057,954.506036 Z M288.448057,910.458471 L420.494365,986.792772 L420.494365,932.539588 L288.448057,856.205288 L288.448057,910.458471 L288.448057,910.458471 Z" id="Fill-136" fill="#DB4174"></path>
            <path d="M471.379643,746.470588 C469.851324,746.470588 468.436741,745.464046 467.974692,743.892682 L460.24069,717.613968 L452.165482,738.157564 C451.43331,740.018581 449.357641,740.923745 447.544984,740.17789 C445.725219,739.439276 444.84377,737.332055 445.568833,735.471038 L457.418632,705.303741 C457.973092,703.877203 459.174421,702.950315 460.873342,703.02997 C462.380335,703.095141 463.688292,704.130649 464.121907,705.607876 L474.784594,741.814426 C475.353271,743.726132 474.279893,745.746457 472.403261,746.318521 L471.379643,746.470588" id="Fill-137" fill="#26B2A9"></path>
            <path d="M259.684874,877.637762 C259.684874,883.969091 255.041987,886.519995 249.31356,883.333132 C243.592467,880.146268 238.94958,872.42996 238.94958,866.098631 C238.94958,859.767301 243.592467,857.223464 249.31356,860.403261 C255.041987,863.590124 259.684874,871.306432 259.684874,877.637762" id="Fill-138" fill="#26B2A9"></path>
        </g>
    </g>
</svg>