<?xml version="1.0" encoding="UTF-8"?>
<svg width="1005px" height="1120px" viewBox="0 0 1005 1120" version="1.1" xmlns="http://www.w3.org/2000/svg" xmlns:xlink="http://www.w3.org/1999/xlink">
    <title>Artboard</title>
    <g id="Artboard" stroke="none" stroke-width="1" fill="none" fill-rule="evenodd">
        <g id="Group" transform="translate(9.680000, 10.372000)">
            <path d="M695.330353,1038.51957 L691.722382,1031.39162 C846.545125,953.336257 948.824294,901.768676 969.824123,605.419083 L976.856066,371.100986 L959.232209,361.133067 C841.025169,294.26161 726.994095,181.550525 629.466888,35.1997141 L626.258914,30.3997531 L610.139045,21.0478291 L599.427132,24.7597989 C570.635365,34.719718 539.635617,39.767677 507.28388,39.767677 L507.28388,31.767742 C538.747624,31.767742 568.85938,26.8637818 596.811153,17.1918604 L610.987038,12.2959001 L631.882868,24.4158017 L636.122834,30.7677501 C732.954047,176.08657 846.049129,287.909662 963.168177,354.165124 L985,366.501023 L977.864058,605.227084 C956.480232,906.872635 852.593075,959.248209 695.330353,1038.51957" id="Fill-187" fill="#D1E9F1"></path>
            <path d="M862.992991,442.452406 C743.041965,374.580958 625.762918,258.821898 527.475716,111.319096 L526.139727,110.551102 C427.852525,144.550826 310.573478,124.894986 190.622452,54.2555593 L186.038489,51.5515813 L192.510436,275.685761 C215.270252,623.106939 333.765289,774.321711 524.48374,1097.32709 L529.123703,1100.00707 C719.842154,997.223901 838.345191,982.832018 861.105006,661.698626 L867.576954,445.044385 L862.992991,442.452406" id="Fill-188" fill="#A7C8E0"></path>
            <path d="M930.656441,390.900825 C810.697416,323.037376 693.426368,207.270317 595.131166,59.7675146 L593.795177,58.9995208 C495.507976,92.9992447 378.228928,73.3514043 258.277902,2.70397804 L253.69394,0 L187.318479,52.3115751 L190.622452,54.2555593 C310.573478,124.894986 427.852525,144.550826 526.139727,110.551102 L527.467716,111.319096 C625.762918,258.821898 743.041965,374.580958 863.000991,442.452406 L867.584954,445.044385 L861.105006,661.698626 C846.249127,871.296923 790.585579,950.208283 700.706309,1008.32781 C813.009397,942.008349 912.064592,845.737131 928.768457,610.147044 L935.240404,393.492804 L930.656441,390.900825" id="Fill-189" fill="#D1E9F1"></path>
            <path d="M935.240404,393.492804 L930.656441,390.900825 C810.697416,323.037376 693.426368,207.270317 595.131166,59.7675146 L593.795177,58.9995208 L526.139727,110.551102 L527.467716,111.319096 C625.762918,258.821898 743.041965,374.580958 863.000991,442.452406 L867.584954,445.044385 L935.240404,393.492804" id="Fill-190" fill="#D1E9F1"></path>
            <path d="M867.584954,445.044385 L861.105006,661.698626 C846.249127,871.296923 790.585579,950.208283 700.706309,1008.32781 C813.009397,942.008349 912.064592,845.737131 928.768457,610.147044 L935.240404,393.492804 L867.584954,445.044385" id="Fill-191" fill="#73ACD1"></path>
            <path d="M503.091914,950.288282 C355.045116,704.706276 280.573721,581.16328 262.613867,311.629469 L258.5259,170.134618 C353.581128,213.118269 444.708388,226.814158 526.811721,210.478291 C608.891055,321.605388 700.018315,413.132645 795.081542,479.916102 L790.985576,616.682991 C773.025722,865.504971 698.554326,903.064665 550.483529,977.704059 C542.739592,981.624027 534.859656,985.591995 526.811721,989.679962 C518.747787,976.288071 510.843851,963.152177 503.091914,950.288282" id="Fill-192" fill="#1E447D"></path>
            <path d="M562.611431,967.000146 C554.867493,970.920114 546.987557,974.888082 538.939623,978.976049 C530.875688,965.592158 522.971753,952.448264 515.219815,939.584369 C367.173018,694.010363 292.701623,570.459367 274.741769,300.925556 L271.117798,175.606574 C266.925832,173.814588 262.733866,172.038603 258.5259,170.134618 L262.613867,311.629469 C280.573721,581.16328 355.045116,704.706276 503.091914,950.288282 C510.843851,963.152177 518.747787,976.288071 526.811721,989.679962 C534.859656,985.591995 542.739592,981.624027 550.483529,977.704059 C610.899038,947.248307 659.050647,922.960504 696.122346,887.984788 C660.858633,917.424549 616.658992,939.760367 562.611431,967.000146" id="Fill-193" fill="#10172D"></path>
            <polyline id="Fill-194" fill="#10172D" points="375.684949 475.436139 492.731998 730.346068 699.106322 513.715828 603.619098 426.772534 492.731998 613.707016 440.372423 488.044036 375.684949 475.436139"></polyline>
            <polyline id="Fill-195" fill="#1B9790" points="197.0304 507.835875 340.597234 820.497336 593.731178 554.787494 476.612129 448.14836 340.597234 677.434498 276.373755 523.29975 197.0304 507.835875"></polyline>
            <polyline id="Fill-196" fill="#26B2A9" points="175.630574 523.531748 319.197408 836.193209 572.331352 570.483367 455.212303 463.844233 319.197408 693.130371 254.973929 538.995622 175.630574 523.531748"></polyline>
            <polyline id="Fill-197" fill="#1B9790" points="593.731178 554.787494 572.331352 570.483367 319.197408 836.193209 340.597234 820.497336 593.731178 554.787494"></polyline>
            <polyline id="Fill-198" fill="#56BBB7" points="197.0304 507.835875 175.630574 523.531748 254.973929 538.995622 276.373755 523.29975 197.0304 507.835875"></polyline>
            <polyline id="Fill-199" fill="#56BBB7" points="572.331352 570.483367 455.212303 463.844233 476.612129 448.14836 593.731178 554.787494 572.331352 570.483367"></polyline>
            <polyline id="Fill-200" fill="#FFFFFE" points="255.189927 535.531651 175.630574 523.531748 254.973929 538.995622 276.373755 523.29975 255.189927 535.531651"></polyline>
            <polyline id="Fill-201" fill="#FFFFFE" points="572.331352 570.483367 455.212303 463.844233 572.635349 566.203401 593.731178 554.787494 572.331352 570.483367"></polyline>
            <path d="M867.272956,438.172441 C747.32193,370.300992 630.042883,254.541933 531.755681,107.039131 L530.419692,106.271137 C432.13249,140.270861 314.853443,120.61502 194.902417,49.9755941 L190.526453,54.6075565 C310.26148,124.950985 427.308529,144.494826 525.427733,110.551102 L526.755722,111.319096 C625.050923,258.821898 742.329971,374.580958 862.280997,442.452406 L866.864959,445.044385 L860.393012,661.698626 C848.065112,835.633213 807.633441,919.568531 742.873967,976.312071 C810.553417,919.504532 852.737074,835.785212 865.384971,657.418661 L871.856919,440.76442 L867.272956,438.172441" id="Fill-202" fill="#FFFFFE"></path>
            <path d="M137.806881,238.81406 C136.006895,238.81406 134.366909,237.59007 133.926912,235.766085 C133.398917,233.622103 134.718906,231.45412 136.862888,230.934124 C142.110846,229.654135 147.510802,228.606143 152.926758,227.81415 C155.12674,227.518152 157.142724,229.02214 157.462721,231.206122 C157.774719,233.390104 156.262731,235.422088 154.078749,235.742085 C148.910791,236.478079 143.758832,237.478071 138.758873,238.702061 L137.806881,238.81406 Z M100.591183,253.061945 C99.1671946,253.061945 97.7912058,252.301951 97.0712116,250.957962 C96.0152202,249.013978 96.7432143,246.589997 98.6871985,245.534006 C103.46316,242.966027 108.447119,240.598046 113.495078,238.518063 C115.543062,237.67007 117.879043,238.646062 118.719036,240.694045 C119.559029,242.734029 118.591037,245.07801 116.543053,245.910003 C111.743092,247.893987 107.015131,250.133968 102.487168,252.581949 L100.591183,253.061945 Z M68.3194451,276.437755 C67.2634537,276.437755 66.1994623,276.013758 65.4154687,275.173765 C63.8954811,273.565778 63.9754804,271.037799 65.5834673,269.517811 C69.5514351,265.773841 73.751401,262.20587 78.055366,258.901897 C79.8153518,257.565908 82.3273314,257.893905 83.6633205,259.637891 C85.0073096,261.397877 84.6793122,263.901857 82.9273265,265.245846 C78.8313597,268.38982 74.8473921,271.781793 71.0634228,275.349764 C70.2954291,276.077758 69.3034371,276.437755 68.3194451,276.437755 Z M42.8076523,307.101506 C42.0556584,307.101506 41.2956646,306.885508 40.6236701,306.437511 C38.7756851,305.237521 38.2556893,302.757541 39.4636795,300.909556 C42.4956549,296.277594 45.7116287,291.81363 49.0236018,287.637664 C50.3915907,285.893678 52.9115703,285.60568 54.6395562,286.989669 C56.3675422,288.357658 56.6635398,290.869638 55.2955509,292.605624 C52.1275766,296.597591 49.0556016,300.861556 46.1596251,305.285521 C45.3916313,306.461511 44.1116417,307.101506 42.8076523,307.101506 Z M24.4238016,342.525218 L22.9198138,342.23722 C20.8718305,341.405227 19.8878385,339.077246 20.7118318,337.029263 C22.7678151,331.949304 25.0077969,326.949345 27.3597778,322.165383 C28.3437698,320.189399 30.7437503,319.373406 32.7197343,320.349398 C34.7037181,321.32539 35.5197115,323.725371 34.5437194,325.701355 C32.2717379,330.317317 30.1117554,335.133278 28.1277716,340.029238 C27.4957767,341.581226 25.9997888,342.525218 24.4238016,342.525218 Z M12.4798986,380.636909 L11.575906,380.532909 C9.42392346,380.036913 8.07993438,377.884931 8.57593035,375.732948 C9.82392021,370.364992 11.199909,365.133034 12.7038968,360.037076 C13.3198918,357.925093 15.5518737,356.725103 17.6638565,357.333098 C19.7918393,357.957093 20.9998294,360.173075 20.3758345,362.301057 C18.9198463,367.245017 17.5838572,372.332976 16.375867,377.540934 C15.9438705,379.388919 14.3038838,380.636909 12.4798986,380.636909 Z M5.9839514,420.068588 L5.57595471,420.044588 C3.37597258,419.81259 1.78398551,417.852606 1.99998376,415.660624 C2.56797914,410.188669 3.23997369,404.836712 4.03196725,399.604754 C4.35996459,397.420772 6.40794796,395.908784 8.58393028,396.244782 C10.7679125,396.572779 12.2719003,398.612763 11.943903,400.788745 C11.1679093,405.916703 10.5119146,411.140661 9.96791904,416.468618 C9.7519208,418.532601 8.0159349,420.068588 5.9839514,420.068588 Z M3.99996751,459.988264 C1.79198545,459.988264 0,458.196279 0,455.988297 C0,450.516341 0.103999155,445.140385 0.311997466,439.836428 C0.391996816,437.628446 2.26398161,435.980459 4.46396374,435.996343 C6.67194581,436.084458 8.39193184,437.940443 8.30393256,440.148425 C8.10393418,445.348383 7.99993503,450.62834 7.99993503,455.988297 C7.99993503,458.196279 6.21594952,459.988264 3.99996751,459.988264 L3.99996751,459.988264 Z" id="Fill-203" fill="#E25B87"></path>
            <path d="M59.1835193,697.914332 C57.6475318,697.914332 56.1835437,697.026339 55.5195491,695.530351 C53.3435668,690.602391 51.2315839,685.674431 49.1676007,680.722471 C48.3196076,678.682488 49.2875997,676.338507 51.3275831,675.482514 C53.3595666,674.66652 55.7115475,675.610513 56.5515407,677.642496 C58.5995241,682.546456 60.6875071,687.434417 62.8394896,692.298377 C63.7354824,694.322361 62.8154898,696.682342 60.7995062,697.570334 L59.1835193,697.914332 Z M76.3193801,734.090038 C74.855392,734.090038 73.4554034,733.282044 72.7514091,731.890056 C70.3194289,727.098095 67.9514481,722.290134 65.631467,717.442173 C64.6714747,715.458189 65.5114679,713.074209 67.5034517,712.106216 C69.4874356,711.154224 71.8794162,711.994217 72.8394084,713.994201 C75.1353898,718.770162 77.4793707,723.538124 79.8793512,728.282085 C80.8793431,730.250069 80.0953495,732.658049 78.1273655,733.658041 L76.3193801,734.090038 Z M95.295226,769.321752 C93.9032373,769.321752 92.5512483,768.593758 91.8152543,767.305768 C89.1512759,762.649806 86.5352972,757.969844 83.975318,753.257882 C82.9113266,751.321898 83.6313208,748.889918 85.567305,747.825926 C87.5112892,746.777935 89.9352696,747.497929 90.991261,749.433913 C93.5352403,754.097875 96.1272193,758.729838 98.7591979,763.3378 C99.855189,765.249785 99.1911944,767.697765 97.27121,768.785756 L95.295226,769.321752 Z M116.023058,803.521474 C114.711068,803.521474 113.423079,802.873479 112.655085,801.689489 C109.759109,797.177525 106.911132,792.633562 104.111154,788.0576 C102.951164,786.169615 103.543159,783.713635 105.431144,782.553644 C107.319128,781.401654 109.783108,781.993649 110.927099,783.881633 C113.703077,788.417597 116.527054,792.89756 119.39103,797.361524 C120.583021,799.217509 120.039025,801.697489 118.18304,802.889479 C117.511046,803.321476 116.767052,803.521474 116.023058,803.521474 Z M138.478875,836.609205 C137.230885,836.609205 136.006895,836.03321 135.222902,834.937219 C132.110927,830.585254 129.030952,826.20129 125.990977,821.777326 C124.742987,819.96134 125.206983,817.465361 127.022968,816.217371 C128.854953,814.969381 131.342933,815.433377 132.590923,817.249362 C135.590899,821.625327 138.638874,825.977292 141.726849,830.281257 C143.014838,832.081242 142.598842,834.569222 140.806856,835.857211 C140.102862,836.369207 139.286869,836.609205 138.478875,836.609205 Z M162.622679,868.448947 C161.454689,868.448947 160.286698,867.936951 159.494705,866.952959 C156.150732,862.776993 152.854759,858.569027 149.590785,854.313061 C148.238796,852.553076 148.574793,850.049096 150.326779,848.705107 C152.078765,847.369118 154.598744,847.697115 155.934734,849.433101 C159.166707,853.649067 162.438681,857.825033 165.742654,861.952999 C167.126643,863.672985 166.846645,866.192965 165.118659,867.576954 C164.382665,868.160949 163.494672,868.448947 162.622679,868.448947 Z M188.470469,898.928699 C187.374478,898.928699 186.278487,898.480703 185.486494,897.60071 C181.926522,893.624742 178.390551,889.600775 174.89458,885.520808 C173.462591,883.848822 173.64659,881.320842 175.326576,879.880854 C177.014562,878.464865 179.534542,878.648864 180.96653,880.32085 C184.422502,884.352817 187.918474,888.328785 191.446445,892.256753 C192.918433,893.90474 192.782434,896.432719 191.142448,897.904707 C190.374454,898.592702 189.422462,898.928699 188.470469,898.928699 Z M216.070245,927.872464 C215.054253,927.872464 214.038262,927.488467 213.254268,926.720473 C209.454299,922.960504 205.67833,919.144535 201.94236,915.272566 C200.406372,913.680579 200.454372,911.1446 202.038359,909.616612 C203.630346,908.088625 206.166326,908.128624 207.694313,909.712611 C211.390283,913.53658 215.118253,917.32055 218.878222,921.03252 C220.45421,922.576507 220.470209,925.112486 218.918222,926.688474 C218.134228,927.472467 217.102237,927.872464 216.070245,927.872464 Z M245.422007,955.048243 C244.486014,955.048243 243.558022,954.728246 242.806028,954.072251 C238.758061,950.56828 234.750093,947.000309 230.766126,943.360338 C229.134139,941.86435 229.02214,939.336371 230.510128,937.712384 C231.998116,936.072397 234.526095,935.960398 236.158082,937.448386 C240.09405,941.048357 244.046018,944.568328 248.037985,948.0243 C249.709972,949.464289 249.88597,951.992268 248.445982,953.664255 C247.653989,954.576247 246.533998,955.048243 245.422007,955.048243 Z M276.557754,980.13604 C275.725761,980.13604 274.893767,979.880042 274.173773,979.344046 C269.885808,976.144072 265.629843,972.864099 261.397877,969.504126 C259.669891,968.128137 259.381893,965.616157 260.757882,963.880172 C262.133871,962.152186 264.637851,961.864188 266.373837,963.240177 C270.541803,966.55215 274.733769,969.784124 278.957734,972.936098 C280.72572,974.256087 281.093717,976.760067 279.773728,978.528053 C278.981734,979.584044 277.781744,980.13604 276.557754,980.13604 Z M309.533486,1002.75986 C308.805492,1002.75986 308.069498,1002.56786 307.413503,1002.15186 C302.87754,999.311884 298.373577,996.375908 293.885613,993.351932 C292.053628,992.103942 291.573632,989.623962 292.805622,987.791977 C294.045612,985.967992 296.533592,985.479996 298.357577,986.711986 C302.773541,989.687962 307.205505,992.575938 311.661469,995.375916 C313.533454,996.551906 314.101449,999.023886 312.925458,1000.88787 C312.165465,1002.09586 310.861475,1002.75986 309.533486,1002.75986 Z M344.341203,1022.4477 L342.549218,1022.0237 C337.805256,1019.63972 333.045295,1017.11974 328.261334,1014.46376 C326.32535,1013.39177 325.637355,1010.95979 326.709347,1009.0238 C327.781338,1007.09582 330.221318,1006.42383 332.141302,1007.46382 C336.837264,1010.0798 341.501226,1012.54378 346.141189,1014.87976 C348.117173,1015.87175 348.909166,1018.27973 347.917174,1020.24771 C347.21318,1021.6477 345.805191,1022.4477 344.341203,1022.4477 Z M380.972906,1038.46357 L379.588917,1038.21557 C374.612957,1036.39158 369.596998,1034.3996 364.541039,1032.24762 C362.509056,1031.39162 361.557063,1029.03964 362.421056,1027.00766 C363.293049,1024.96768 365.63703,1024.02368 367.669014,1024.88768 C372.596974,1026.97566 377.492934,1028.91964 382.356895,1030.71963 C384.428878,1031.47162 385.484869,1033.7756 384.724875,1035.84759 C384.13288,1037.46357 382.604893,1038.46357 380.972906,1038.46357 Z M419.308594,1049.75947 L418.452601,1049.66347 C413.252644,1048.52748 408.004686,1047.22349 402.700729,1045.73551 C400.572747,1045.12751 399.332757,1042.92753 399.932752,1040.79155 C400.532747,1038.67956 402.740729,1037.44757 404.860712,1038.03157 C410.01267,1039.47156 415.116628,1040.75155 420.156588,1041.84754 C422.31657,1042.31953 423.684559,1044.44752 423.212563,1046.6075 C422.804566,1048.47948 421.14858,1049.75947 419.308594,1049.75947 Z M458.916273,1054.95943 L458.756274,1054.95943 C453.444317,1054.74343 447.972362,1054.31944 442.508406,1053.69544 C440.316424,1053.43944 438.740437,1051.45546 438.988435,1049.26348 C439.236433,1047.0715 441.244416,1045.49551 443.420399,1045.74351 C448.692356,1046.3515 453.956313,1046.7595 459.076271,1046.9595 C461.284254,1047.0555 462.99624,1048.91148 462.90824,1051.11946 C462.820241,1053.27145 461.052255,1054.95943 458.916273,1054.95943 L458.916273,1054.95943 Z" id="Fill-204" fill="#E25B87"></path>
            <path d="M321.229391,917.096552 C188.462469,840.441174 80.4473466,654.122687 80.4473466,501.763925 C80.4473466,427.420529 105.807141,371.82898 151.854767,345.245196 C198.302389,318.429414 259.877889,324.437365 325.229359,362.165059 C347.085181,374.780956 368.749005,390.644827 389.628836,409.308676 L384.292879,415.276627 C363.829045,396.972776 342.613217,381.436902 321.229391,369.093002 C258.469901,332.853297 199.734378,326.837345 155.854734,352.17314 C112.383087,377.268936 88.4472816,430.396504 88.4472816,501.763925 C88.4472816,651.578708 194.670419,834.78522 325.229359,910.168608 L321.229391,917.096552" id="Fill-205" fill="#E25B87"></path>
            <path d="M339.333244,922.000512 C338.965247,929.816448 333.597291,933.224421 327.349341,929.61645 C321.101392,926.008479 316.341431,916.752554 316.709428,908.944618 C317.085425,901.136681 322.453381,897.728709 328.69333,901.32868 C334.94128,904.93665 339.701241,914.192575 339.333244,922.000512" id="Fill-206" fill="#DB4174"></path>
            <path d="M398.404764,421.196579 L363.053051,412.364651 C360.909069,411.820655 359.605079,409.652673 360.141075,407.50869 C360.677071,405.364708 362.853053,404.076718 364.989036,404.596714 L385.636868,409.764672 L378.276928,389.868834 C377.500934,387.79685 378.564925,385.492869 380.636909,384.732875 C382.724892,383.948882 385.004873,385.020873 385.772867,387.092856 L398.404764,421.196579" id="Fill-207" fill="#E25B87"></path>
        </g>
    </g>
</svg>