<?xml version="1.0" encoding="UTF-8" standalone="no"?> <!-- Created with Vectornator for iOS (http://vectornator.io/) --><!DOCTYPE svg PUBLIC "-//W3C//DTD SVG 1.1//EN" "http://www.w3.org/Graphics/SVG/1.1/DTD/svg11.dtd">
<svg height="100%" style="fill-rule:nonzero;clip-rule:evenodd;stroke-linecap:round;stroke-linejoin:round;" xmlns:xlink="http://www.w3.org/1999/xlink" xmlns="http://www.w3.org/2000/svg" xml:space="preserve" width="100%" xmlns:vectornator="http://vectornator.io" version="1.1" viewBox="0 0 511.999 511">
<metadata>
<vectornator:setting key="DimensionsVisible" value="1"/>
<vectornator:setting key="PencilOnly" value="0"/>
<vectornator:setting key="SnapToPoints" value="0"/>
<vectornator:setting key="OutlineMode" value="0"/>
<vectornator:setting key="CMYKEnabledKey" value="0"/>
<vectornator:setting key="RulersVisible" value="1"/>
<vectornator:setting key="SnapToEdges" value="0"/>
<vectornator:setting key="GuidesVisible" value="1"/>
<vectornator:setting key="DisplayWhiteBackground" value="0"/>
<vectornator:setting key="doHistoryDisabled" value="0"/>
<vectornator:setting key="SnapToGuides" value="1"/>
<vectornator:setting key="TimeLapseWatermarkDisabled" value="0"/>
<vectornator:setting key="Units" value="Points"/>
<vectornator:setting key="DynamicGuides" value="0"/>
<vectornator:setting key="IsolateActiveLayer" value="0"/>
<vectornator:setting key="SnapToGrid" value="0"/>
</metadata>
<defs/>
<g id="Untitled" vectornator:layerName="Untitled">
<path d="M506.93+264.938C500.723+259.453+491.242+260.043+485.758+266.25L485.516+266.523L485.516+256.012C485.516+194.707+461.641+137.07+418.289+93.7188C374.941+50.3711+317.305+26.5+256+26.5C218.969+26.5+182.172+35.5313+149.582+52.6133C118.051+69.1406+90.375+93.1836+69.5469+122.148C64.7109+128.871+66.2422+138.246+72.9687+143.082C79.6953+147.922+89.0703+146.391+93.9062+139.664C112.023+114.469+136.094+93.5547+163.512+79.1836C191.82+64.3438+223.801+56.5+256+56.5C366.012+56.5+455.516+146.004+455.516+256.016L455.516+266.527L455.27+266.254C449.785+260.043+440.305+259.457+434.098+264.941C427.887+270.426+427.301+279.906+432.785+286.113L459.27+316.098C462.117+319.32+466.211+321.164+470.512+321.164C474.812+321.164+478.906+319.32+481.754+316.098L508.238+286.113C513.727+279.902+513.141+270.422+506.93+264.938Z" opacity="1" fill="#464a67"/>
<path d="M439.031+368.891C432.305+364.055+422.934+365.582+418.094+372.309C399.977+397.5+375.906+418.414+348.488+432.789C320.18+447.629+288.195+455.473+256+455.473C145.988+455.473+56.4844+365.969+56.4844+255.957L56.4844+245.445L56.7305+245.723C62.2148+251.93+71.6953+252.52+77.9023+247.031C84.1133+241.547+84.6992+232.066+79.2148+225.859L52.7305+195.875C49.8789+192.652+45.7891+190.805+41.4883+190.805C37.1875+190.805+33.0898+192.652+30.2461+195.875L3.75781+225.859C-1.72656+232.07-1.14062+241.547+5.07031+247.031C7.92188+249.555+11.4648+250.793+14.9961+250.793C19.1445+250.793+23.2773+249.078+26.2422+245.723L26.4844+245.445L26.4844+255.957C26.4844+317.266+50.3594+374.898+93.7109+418.25C137.059+461.602+194.695+485.473+256+485.473C293.027+485.473+329.828+476.441+362.418+459.359C393.945+442.832+421.621+418.785+442.449+389.824C447.285+383.098+445.758+373.727+439.031+368.891Z" opacity="1" fill="#464a67"/>
<path d="M256+315.957C289.082+315.957+316+289.043+316+255.957C316+222.875+289.082+195.957+256+195.957C222.914+195.957+196+222.875+196+255.957C196+289.043+222.914+315.957+256+315.957ZM256+225.957C272.543+225.957+286+239.414+286+255.957C286+272.5+272.543+285.957+256+285.957C239.457+285.957+226+272.5+226+255.957C226+239.414+239.457+225.957+256+225.957Z" opacity="1" fill="#464a67"/>
<path d="M108.047+294.391C107.016+298.23+107.555+302.324+109.547+305.77L139.547+357.734C141.535+361.18+144.812+363.691+148.652+364.723C152.496+365.75+156.59+365.215+160.035+363.223L182.094+350.488C190.902+357.371+200.664+363.02+211+367.215L211+392.648C211+400.93+217.715+407.648+226+407.648L286+407.648C294.281+407.648+301+400.93+301+392.648L301+367.215C311.336+363.02+321.098+357.371+329.906+350.488L351.965+363.223C355.406+365.211+359.504+365.75+363.344+364.723C367.187+363.691+370.465+361.18+372.453+357.734L402.453+305.77C404.441+302.324+404.98+298.23+403.953+294.391C402.922+290.547+400.406+287.27+396.965+285.281L374.859+272.52C375.617+267.043+376+261.5+376+255.957C376+250.348+375.609+244.75+374.832+239.211L396.965+226.434C400.41+224.445+402.922+221.168+403.953+217.324C404.98+213.48+404.441+209.387+402.453+205.941L372.453+153.98C368.312+146.809+359.137+144.352+351.965+148.492L329.762+161.312C320.988+154.48+311.277+148.871+301+144.699L301+119.066C301+110.785+294.285+104.066+286+104.066L226+104.066C217.715+104.066+211+110.785+211+119.066L211+144.699C200.727+148.871+191.012+154.48+182.242+161.312L160.035+148.492C152.863+144.348+143.687+146.809+139.547+153.98L109.547+205.941C107.559+209.387+107.02+213.484+108.047+217.324C109.078+221.168+111.59+224.445+115.035+226.434L137.168+239.211C136.391+244.75+136+250.348+136+255.957C136+261.5+136.383+267.039+137.141+272.52L115.039+285.281C111.59+287.27+109.078+290.547+108.047+294.391ZM168.418+276.758C166.812+269.973+166+262.973+166+255.957C166+248.891+166.824+241.844+168.453+235.008C169.992+228.555+167.109+221.855+161.363+218.539L143.027+207.953L158.027+181.973L176.426+192.598C182.168+195.91+189.406+195.063+194.227+190.512C204.434+180.871+216.898+173.672+230.277+169.691C236.637+167.797+241+161.949+241+155.313L241+134.066L271+134.066L271+155.313C271+161.949+275.359+167.797+281.719+169.691C295.102+173.672+307.566+180.875+317.773+190.512C322.594+195.063+329.832+195.91+335.57+192.598L353.973+181.973L368.973+207.953L350.637+218.539C344.891+221.855+342.008+228.555+343.543+235.008C345.172+241.844+346+248.891+346+255.957C346+262.973+345.184+269.973+343.582+276.758C342.059+283.207+344.941+289.887+350.68+293.199L368.973+303.762L353.973+329.742L335.707+319.195C329.957+315.875+322.707+316.73+317.887+321.297C307.66+330.988+295.152+338.227+281.723+342.227C275.359+344.117+271+349.965+271+356.602L271+377.648L241+377.648L241+356.602C241+349.965+236.641+344.117+230.281+342.227C216.848+338.227+204.34+330.992+194.113+321.297C189.293+316.73+182.047+315.879+176.297+319.195L158.027+329.742L143.027+303.762L161.32+293.199C167.055+289.887+169.941+283.207+168.418+276.758Z" opacity="1" fill="#464a67"/>
</g>
</svg>
