<?xml version="1.0" standalone="no"?>
<!DOCTYPE svg PUBLIC "-//W3C//DTD SVG 20010904//EN"
 "http://www.w3.org/TR/2001/REC-SVG-20010904/DTD/svg10.dtd">
<svg version="1.0" xmlns="http://www.w3.org/2000/svg"
 width="512.000000pt" height="512.000000pt" viewBox="0 0 512.000000 512.000000"
 preserveAspectRatio="xMidYMid meet">

<g transform="translate(0.000000,512.000000) scale(0.100000,-0.100000)"
fill="#000000" stroke="none">
<path d="M2315 5109 c-800 -83 -1501 -518 -1927 -1196 -604 -961 -490 -2237
274 -3068 425 -462 951 -737 1583 -827 119 -17 512 -16 635 1 622 86 1148 360
1572 820 349 378 572 862 650 1406 17 118 17 512 0 630 -59 416 -191 769 -410
1099 -92 140 -185 254 -315 385 -399 404 -893 653 -1462 737 -123 18 -478 26
-600 13z m-688 -1284 c86 -26 143 -72 183 -149 30 -59 34 -77 34 -141 0 -61
-4 -82 -29 -131 -54 -104 -161 -164 -294 -164 -83 0 -133 14 -194 52 -85 54
-130 142 -129 253 1 206 213 344 429 280z m1761 -801 c220 -45 393 -203 465
-429 43 -131 47 -203 47 -781 l0 -554 -290 0 -289 0 -3 538 c-3 527 -3 538
-25 591 -56 136 -117 182 -249 189 -71 4 -89 1 -136 -20 -74 -34 -119 -76
-159 -150 l-34 -63 -3 -542 -3 -543 -289 0 -290 0 0 870 0 870 290 0 290 0 1
-122 c0 -117 1 -122 16 -98 39 60 160 167 223 198 122 60 286 77 438 46z
m-1578 -894 l0 -870 -290 0 -290 0 0 870 0 870 290 0 290 0 0 -870z"/>
</g>
</svg>
