<?xml version="1.0" encoding="UTF-8"?>
<svg id="uuid-2882585d-a66d-45b4-9a35-b9e62b671a2a" data-name="Ebene 1" xmlns="http://www.w3.org/2000/svg" viewBox="0 0 655.84 655.3">
  <defs>
    <style>
      .uuid-75a0ba5e-f33d-4623-8a14-09ee2e51cccd {
        fill: #1f3685;
      }
    </style>
  </defs>
  <path class="uuid-75a0ba5e-f33d-4623-8a14-09ee2e51cccd" d="m327.92,0l-14.69,29.77-32.86,4.77,23.78,23.18-5.61,32.73,29.39-15.45,29.39,15.45-5.61-32.73,23.78-23.18-32.86-4.78-14.69-29.77h0Zm-138.18,41.13l-14.69,29.77-32.86,4.77,23.78,23.18-5.61,32.73,29.39-15.45,29.39,15.45-5.61-32.73,23.78-23.17-32.86-4.77-14.69-29.77h0Zm276.36,0l-14.7,29.77-32.86,4.77,23.78,23.18-5.61,32.73,29.39-15.45,29.39,15.45-5.61-32.73,23.78-23.18-32.86-4.77-14.69-29.77h0ZM85.05,146.49l-14.69,29.77-32.86,4.77,23.78,23.18-5.61,32.73,29.39-15.45,29.39,15.45-5.61-32.73,23.78-23.17-32.86-4.78-14.69-29.77h0Zm485.73,0l-14.7,29.77-32.86,4.77,23.78,23.18-5.61,32.73,29.39-15.45,29.39,15.45-5.61-32.73,23.78-23.18-32.86-4.78-14.69-29.77h0ZM47.55,284.76l-14.69,29.77-32.86,4.77,23.78,23.18-5.61,32.73,29.39-15.45,29.39,15.45-5.61-32.73,23.78-23.17-32.86-4.77-14.69-29.77h0Zm560.73,0l-14.7,29.77-32.86,4.77,23.78,23.18-5.61,32.73,29.39-15.45,29.39,15.45-5.61-32.73,23.78-23.18-32.86-4.77-14.69-29.77h0ZM85.05,425.22l-14.69,29.77-32.86,4.78,23.78,23.17-5.61,32.73,29.39-15.45,29.39,15.45-5.61-32.73,23.78-23.17-32.86-4.78-14.69-29.77h0Zm485.73,0l-14.7,29.77-32.86,4.78,23.78,23.17-5.61,32.73,29.39-15.45,29.39,15.45-5.61-32.73,23.78-23.17-32.86-4.78-14.69-29.77h0Zm-381.04,102.73l-14.69,29.77-32.86,4.78,23.78,23.18-5.61,32.73,29.39-15.45,29.39,15.45-5.61-32.73,23.78-23.18-32.86-4.78-14.69-29.77h0Zm276.36,0l-14.7,29.77-32.86,4.78,23.78,23.18-5.61,32.73,29.39-15.45,29.39,15.45-5.61-32.73,23.78-23.18-32.86-4.78-14.69-29.77h0Zm-138.45,36.9l-14.69,29.77-32.86,4.77,23.78,23.18-5.61,32.72.6-.32-.05.32,29.11-15.31,29.11,15.31-.05-.32.6.32-5.61-32.72,23.77-23.18-32.86-4.77-14.69-29.77-.27.55-.27-.55h0Z"/>
  <g>
    <path class="uuid-75a0ba5e-f33d-4623-8a14-09ee2e51cccd" d="m253,282h18.8v93.21h-16.91l-33.82-58.44v58.44h-18.8v-93.21h17.45l33.28,57.77v-57.77Z"/>
    <path class="uuid-75a0ba5e-f33d-4623-8a14-09ee2e51cccd" d="m294.53,375.21v-93.21h18.8v93.21h-18.8Z"/>
    <path class="uuid-75a0ba5e-f33d-4623-8a14-09ee2e51cccd" d="m330.78,348.15h18.8c.14,6.63,6.63,12.18,15.29,12.18s13.93-4.6,13.93-11.23c0-5.14-3.79-8.79-11.77-11.23l-11.36-3.25c-20.43-5.41-24.08-17.72-24.08-26.11,0-16.64,14.34-28.14,32.2-28.14s31.12,10.69,31.12,28.41h-18.8c0-6.63-4.6-11.77-12.72-11.77-7.3,0-12.85,4.87-12.85,11.09,0,2.3.68,7.03,10.42,9.88l10.42,2.98c14.07,4.19,26.38,11.36,26.38,27.19,0,18.53-15.83,28.68-33.42,28.68-19.89,0-33.55-12.31-33.55-28.68Z"/>
    <path class="uuid-75a0ba5e-f33d-4623-8a14-09ee2e51cccd" d="m437.93,358.57h31.39v16.64h-59.66v-9.61l34.63-41.53c3.65-4.46,6.09-9.06,6.09-12.04,0-5.95-4.87-10.15-11.77-10.15-7.85,0-12.31,5.14-13.39,12.85l-16.1-2.71c2.17-15.83,12.45-26.65,30.17-26.65s29.22,10.69,29.22,26.79c0,8.52-4.06,16.1-9.74,22.46l-20.83,23.95Z"/>
  </g>
</svg>