<?xml version="1.0" encoding="utf-8"?>
<!-- Generator: Adobe Illustrator 27.2.0, SVG Export Plug-In . SVG Version: 6.00 Build 0)  -->
<svg version="1.1" id="Layer_2" xmlns="http://www.w3.org/2000/svg" xmlns:xlink="http://www.w3.org/1999/xlink" x="0px" y="0px"
	 viewBox="0 0 6000 4000" style="enable-background:new 0 0 6000 4000;" xml:space="preserve">
<style type="text/css">
	.st0{fill:#FFFFFF;}
	.st1{fill:none;stroke:#000000;stroke-width:8;stroke-linecap:round;stroke-linejoin:round;stroke-miterlimit:10;}
</style>
<rect class="st0" width="6000" height="4000"/>
<path class="st1" d="M54.2,2122c502.9-3.2,1005.7-6.4,1510.9,7.9c72.6-27.3,162.9,6.1,200.2,74.1c24.6,44.9,26.7,98.2,28.3,149.4
	c6.6,218.8,13.2,437.6,19.8,656.3c2.5,84.6,5.3,170.3,28.8,251.6c13.5,46.8,37.1,95.2,80.9,116.6c28.2,13.8,60.9,14.4,92.3,14.7
	c646,6.4,1292,5.5,1938-2.6c56.9-0.7,120.2-4.2,159.6-45.2c25.6-26.7,35.7-64.4,43.3-100.6c39.1-185.2,39.2-376,39.2-565.2
	c0-147.3,0-294.6,0-441.9c0-38.2,1.6-80.4,28-107.9c26.1-27.2,67.6-20.7,113.5-18.6c-9-9.7-2.9-26.7,8.3-33.9
	c11.2-7.2,25.2-7.6,38.4-9c31.9-3.4,63.1-13.8,90.7-30.3c4.5-2.7,10-5.7,14.8-3.6c3,1.3,4.9,4.2,6.5,7c5.7,10,9.4,21.2,10.9,32.7
	c0.5,3.6,0.7,7.4-1,10.6c-1.7,3.3-5,5.3-8.3,7.1c-39.2,21.8-85,31.5-129.7,27.5c-4.6-0.4-9.6-1.1-13.1-4.1c-8-6.8-3.6-20.8,5-26.7
	c8.7-5.9,19.7-6.8,29.7-10s40.4-8.6,40.5-19.1c-18-10.5-31.8-162.3-47.1-295.4c6.4-132.3,19.4-283.9,59.4-411.8
	c59.3-2.3,118.6-4.5,177.9-6.8c5.3-0.2,10.9-0.3,15.6,2.1c4.4,2.3,7.4,6.5,10.1,10.7c59.9,92.6,57.4,232.9,89.8,338.2
	c3,9.9,6.6,19.8,12.7,28.2c6.8,9.3,16.4,16.1,25.2,23.5c50.6,42.3,97,135,139.4,185.5c-15.5,13.5-42.1,28.3-50.6,46.9
	c-79.6-58.2-150.1-163.4-217.5-241.3c-34.1-86.2-66.5-173.2-96.9-260.7c9.4,8.9,7.2,24.2,4,36.8c-9.9,38.8-22.3,77-37.1,114.2
	c-9.8,24.5-20.7,48.8-25.1,74.8c-3.7,21.6-2.9,43.7-2,65.6c2.9,73.4,5.8,146.8,8.7,220.2c0.6,14.1,0.5,29.9-9.1,40.3
	c-14,15-40.8,8.5-53.6-7.5c-12.8-16-15.4-37.6-17.5-57.9c-3.5-33.4-6.9-66.8-8.5-100.4c-1.5-31.5-1.4-63.3-9.2-93.8
	c-4.4-16.9-11.2-33.2-14.3-50.4c-4.5-24-1.7-48.6,1.8-72.7c10.9-75.3,29.5-149.5,55.5-220.3c20.9-47.6-1.3-33.9-5.8-85.7
	c-2.4-26.8,13.3-121.6,10.9-148.4c-28.8,24.1-58.6,48.8-94.3,60.3c-43.8,14.1-91.1,7-137.1,8.8c2.5-15.4,3.7-31,4.2-45.6
	c-16.3-5.4-30.5-16-46.7-21.9c-16.2-5.9-36.7-5.9-48,7.1c15.5,2,30.7,5.3,45.6,10c-16.2-5.9-34.9-4.6-50.1,3.5
	c-0.7,6.9-1.3,14.5,2.4,20.4c3,4.7,8.1,7.5,13.1,10c19.2,9.9,40.2,20.1,61.4,15.8c5.2-1.1,10.5-3.1,14.2-6.9
	c5.7-5.7-4.2-32.6-1.4-40.2c73.7-197.3,88.4-208,154.7-411.1c7.7-23.6,8.1-52.2-8.4-70.7c-20.5-22.8-59.5-18.7-83.5,0.5
	c-54.2,43.5-44.1,104-120.9,270.5c-10.9-3.3-23.4-6.5-33.2-0.6c-9.7,6-9.2,25,2.2,25.7c2.1-1.1,1.1-4.8-1.2-5.6
	c-2.3-0.8-4.8,0.4-6.8,1.7c-13.2,8.9-17.9,28.7-9.3,42.2c8.6,13.4,29.5,17.2,41.7,6.9s11.5-32.4-1.8-41.2
	c7.3,5.6,19.4-2.7,18.2-11.8s-12.4-14.7-21.2-11.7c-8.7,3-14.2,12.3-14.7,21.5c-0.3,5.4,0.7,11.1-1.7,15.9
	c-2.9,5.8-10.4,9.1-11.3,15.5c-0.8,5.4,3.4,10.2,4.1,15.7c1.4,12.5-267.1,692.2-307.3,805.8c-4.2,79.4-6.2,158.8-5.9,238.3
	c41.3-66.6,101-129.8,151.4-197.9c70.4-208.6,152.7-445.2,234.5-642.1c6.2-24.4,14.1-51.3,35.6-64.5c8.9-5.5,19.3-7.9,29.5-10.3
	c34.4-8.1,68.9-16.2,103.3-24.2c-0.5,2.4-2.6,4.5-5,4.9c-1.3-4.3,2.1-8.5,5.4-11.7c57.1-56.6,116.6-110.8,178.3-162.3
	c15.9-13.3,34.9-27.2,53.3-25.1c-14.1-1.9-28.1-5.1-41.6-9.5c-3.7-1.2-7.5-2.6-10-5.6c-4.3-5.1-3.2-12.7-1.8-19.2
	c5.6-25.4,12.4-50.6,15.1-76.5c1.4-13,1.3-27.3-6.4-37.9s-25.7-14.2-33.6-3.7c1.6-12.7-10.2-23.9-22.7-26.4
	c-12.5-2.5-25.4,1.3-37.6,5c-14.2,4.4-28.3,8.7-42.5,13.1c-11.1,3.4-23.1,7.4-29.7,17c-6.6,9.6-3.5,26.2,22.9,35.1
	c4,27.8,10.6,55.3,19.8,81.9c4.8,13.8,11.5,28.7,25,34.3c14.7,6,32.4-2.3,41.1-15.6c8.8-13.3,10.3-30,9.3-45.9
	c-0.4-7.1-1.3-14.4,0.3-21.4c1.7-7,6.6-13.7,13.6-15.1c11.1-2.1,20.5,11.4,17.4,22.3c-3.1,10.8-14.6,17.5-25.8,18.9
	c1.7-12.4,2.8-25,3.3-37.5c0.1-2.5,0.1-5.2-1.3-7.2c-3.8-5.2-11.8-0.8-18.2-0.9c-9.8-0.1-15.4-11.3-16.9-21
	c-0.4-2.5-0.8-5.3-2.5-7.2c-2.6-2.8-7-2.5-10.7-1.9c-17.3,2.8-34.1,8.6-49.4,17c12.2,34,25.8,69.9,54.5,91.7
	c3.6,2.7,7.6,5.5,9.3,9.7c1,2.5,1.1,5.4,1.1,8.1c0.1,9.2,0.2,18.3,10.4,30.9c22.2-13.5,42.5-30.1,60.1-49.3
	c2.5,27.1-14.3,54.9-39.5,65.3c-2.2-9.4-13.5-14.5-23-12.6c-9.5,1.9-17.1,9-23.1,16.6c1-11.8,2-23.5,3-35.3
	c-10.1-5.6-22.2,2.5-30.9,10.2c-31.8,28.2-63.5,56.4-95.3,84.5c2.1,4,7.7,5.8,11.7,3.7c4.6-4.8-3.8-11.2-10.4-12.4
	c-23.2-4.5-46.4-8.9-69.6-13.4c-6.7,14.5-13.4,28.9-20.1,43.4c34.1,22,74,34.8,118.5,31.8c52.6-23.6,98.9-61.1,132.7-107.8
	c1.5-2,2.9-4.1,3.4-6.5c2-9.8-13.3-14.9-21.4-9.1s-10.9,16.4-15.1,25.4c-19,40.7-69.9,53.2-114.2,60.9c-14.7,2.5-29.7,5.1-44.4,2.4
	c-14.7-2.7-29.1-11.7-34-25.7c-4.1-11.8-1-24.7,2.5-36.6c8.9-30.8,20.3-60.9,33.9-89.9c9.8-21,21.1-44.4,13.8-66.4
	c-5.8-17.6-22.7-29.6-40.5-34.7c-17.8-5-36.7-4.2-54.1-6.7c-21.9,5.2-37.8,28.7-34.3,51c12.1,1.6,24.2,3.3,36.3,4.9
	c3.4,0.5,7.1,1,9.6,3.4c5,4.6,2.7,12.8,0,19.1c-71.2,169-135.2,341.1-200.2,514.3c-44.4,138.3-94.8,274.8-151,408.7
	c-3.6,8.5-7.8,17.6-16,21.9c-18.2,9.3-43.1-11.6-59.6,0.6c-3,49.9-6,99.7-9.1,149.6c9.9-10,50.8-3.6,56.9,9.1
	c6.1,12.7-19.6,28-26.3,40.4c-6.6,12.4-16,23.2-22.2,35.9c-2.5,5.1-4.6,10.7-9.2,14c-4.1,2.9-9.3,3.4-14.3,3.9
	c-63.3,5.4-1254.8-7.7-1384.4-15.1c-14.5-31.6-26.3-64.4-35-98.1c-1.6-6.4-3.2-12.9-2.2-19.4c2.9-19.6,29.1-28.8,46.9-20
	c17.7,8.8,26.9,29.3,29,48.9c1.8,16.8,0.5,36.4,13.2,47.6c10.4,9.2,30.3,15.1,26.2,28.4c-2.3,7.4-11.4,10-19.1,10
	c-25.2-0.1-49.3-18.2-56.5-42.4c-7.1-24.2,3.2-52.5,24.4-66.3c5.9-3.9,12.5-6.7,18-11.1c6.1-4.9,10.6-11.6,14.9-18.2
	c53.1-80.3,106.3-160.5,142.8-245.1c41.9-73.3,80.5-186.8,80.5-238.5c0-7.7-11.6,30-10.4,37.6c12.2,73.7,98.4,85,150.5,138.5
	c10.7,10.9,21.5,22.1,28.3,35.7c5.2,10.3,7.8,21.6,10.6,32.8c21.8,87.4,52.9,172.5,92.4,253.4c23.2-17.8,46.4-35.6,70.1-56.2
	c33.9-3.6,67.8-7.3,101.7-10.9c10-1.1,23.8,0.6,24.9,10.6c-34.5,49.3-90.3,83.2-150,91c-7.5-8.3-15.1-16.6-22.6-24.9
	c-2.8-3-5.7-6.7-5-10.8c0.6-3.4,3.6-5.8,6.4-7.7c19.9-13.9,45-27.3,48.4-51.4c1.9-13.9-4.3-27.4-10.2-40.2
	c-33.7-73-59.6-149.6-85-240.8c-72.1-86.8-144.2-173.5-216.2-260.3c-46.3,9.5-120.2,39.6-167.1,34c-6.8,38.1,5.9,0.6-28.9,168.6
	c-26.8,129.6-54.9,227.9-128.5,337.9c-5.1,7.6-10.5,15.9-9.9,25c0.6,9.1,10.8,17.8,18.7,13.3c31.4-62.4,62.8-124.7,94.2-187.1
	c15.4-30.6,30.9-61.4,39.9-94.4c15.3-55.5,3.9-135.4,23.1-190.9c10.9-46.5,61.3-72.6,108.3-80.8c9.6-1.7,19.8-3.1,27-9.6
	c7.7-6.9,10.1-17.8,11.8-28c17.2-101.7,11.1-207.2-8.7-316.1c66.9,17.2,132,41.1,194,71.2c-4.9,1.3-10.5-1.6-12.3-6.3
	c13.6-4.6,28.5-1.5,42.5,1.6c38.8,8.6,77.5,17.3,116.3,25.9c-5.9,14.3-10.6,29-15.8,47c17.3,7.5,34.7,15,52,22.5
	c4.2-7.8,0.3-18.8-7.8-22.2c10.5,10,23.9,17,38.2,19.6c4.7-8.7-3.3-18.7-10.7-25.3c-16-14.6-32-29.2-48-43.8
	c-9.2,5.5-15.7,15.5-16.9,26.2c-0.5,4.6-0.4,9.9-3.8,13c-3.1,2.9-8,2.7-12.2,2.4c-92.3-8.1-184.1-21.9-278.3-34.2
	c8.1,76.1,16.2,152.1,24.3,228.2c1.5,14.2,3,28.8-0.2,42.7c-19.5-8.3-28.6-33-48.7-39.7c-16.9-5.6-34.6,3.7-51,10.6
	c-18.9,7.9-39,12.9-59.4,14.7c-3.8,0.3-7.8,0.5-11-1.5c-6.1-3.8-5.7-12.6-4.7-19.7c11-75.7,15.9-152.3,14.6-228.8
	c-0.6-34.8-2.7-70.6-21.1-107.2c-7.8-6.7-13.6-15.7-16.5-25.6c13.5-12.6,20-32.2,16.8-50.4c-2.7-15.5-11.7-29.1-17.2-43.8
	c-6.4-17.4-7.8-36.7-3.9-54.8c3.3-15.4,11.9-31.3,26.8-36.6c6.8-2.4,14.1-2.3,21.3-2.2c11,0.2,22,0.3,32.9,0.5
	c16.3,0.3,32.6,0.5,48.9,2.1c9.8,0.9,20.6,2.9,26.7,10.6c6.1,7.7,2.5,22.5-10.2,26.9c1.7,37.5-2.8,75.3-13.3,111.4
	c-1.5,5.3-3.3,10.6-6.7,14.9c-6.7,8.3-18.9,10.8-29.3,8.2c-10.4-2.6-19.2-9.4-26.9-16.9c-6.8-6.7-13-14.3-16.1-23.2
	c-5.4-15.7-0.8-33.7-7.6-48.8c-1.5-3.4-3.7-6.7-7-8.6c-8-4.7-19.1,2.1-21.3,11.1c-2.3,9,1.9,18.5,7.8,25.7c3.1,3.9,7.4,7.7,12.4,7.4
	c10.1-0.6,11.6-15.1,8.7-24.8c-2.8-9.7-5.7-22.7,2.9-27.9c5.7-3.4,13.9-1.2,18.8-5.7c2.8-2.5,3.7-6.4,5.2-9.8
	c4.6-10.2,15.6-16.4,26.7-18.1c11.1-1.8,22.3,0.2,33.4,2.1c3.1,0.5,6.5,1.3,8.3,3.8c1.5,2,1.6,4.6,1.7,7c1,31.4-2.9,63-11.6,93.3
	c-3.3,11.5-8.2,23.8-18.8,29.3c-3.3,1.7-7.3,2.8-9.2,6c-1.5,2.5-1.3,5.7-1.3,8.6c0,12.8-4.9,25.5-13.6,34.9
	c-22.1-13.2-44.9-25.2-68.3-35.9c-3.9-1.8-8.4-3.5-12.2-1.7c-8,3.8-3.6,15.9,1.9,22.9c9.3,12,18.7,23.9,28,35.9
	c4.1,5.3,9.1,11,15.8,11.1c13.8,0.3,18-22.1,31.6-24.3c13.3-2.1,25.3,16.8,37.3,10.7c0.1-15.8-9.2-31.4-23.2-38.8
	c-1.9,18.7,0.3,37.9,6.4,55.7c-5.5,0.3-11,0.6-21.5,4.1c0.5,79.8-5.2,159.6-17.1,238.5c-3.8,24.9-6.1,55.3,14.1,70.4
	c6.4-18.2,22-32.5,26.5-51.3c1.8-7.6,1.7-15.4,1.5-23.2c-1.4-70.9-2.8-141.8-4.2-212.7c-0.2-8.9-2.6-20.5-11.5-21.5
	c-3.3-0.4-6.7,1.1-10,0.6c-7.5-1.1-10.4-10.7-17.2-14.2c-3.9-2-8.6-1.7-12.9-2.7c-15.7-3.8-20.9-23.2-32.3-34.7
	c-19-19.1-50.8-12.7-76.6-4.9c-19,5.7-38.3,11.6-55,22.4c-11.5,7.5-21.4,17.1-31.1,26.8c-21.4,21.3-42.2,43.1-62.5,65.3
	c-16.8,18.4-33.3,37.3-46,58.8c-10.9,18.5-18.8,38.6-26.7,58.6c-13.1,33.3-26.1,66.6-39.2,100c13.8,0.4,27.3,6.3,44.2,19.4
	c-7.6,20.6-19.3,39.8-34.3,55.9c2.9-6.7,5.8-13.3,8.7-20c-14.1,16.3-37,24.6-58.3,21c-4.1-12.4,5.2-27.4,18.1-29.3
	c0.9-9.2,1.8-18.7,6-27s12.2-15.3,21.5-15.4c11.9-0.1,22.2,10.8,34,9.5c24.7-2.6,56.9-95.4,57.9-95c-13.7-7.9-29.3-19.3-27.8-35.1
	c1-10.4,9.9-18.8,20-22s20.9-1.9,31.1,0.1c12.9,2.6,25.8,6.7,36.1,14.9c10.3,8.2,17.6,21,16.4,34.1c-14-0.5-27.3-9.7-32.8-22.6
	c5.8,5.1,11.7,10.7,13.7,18c2,7.4-1.7,16.9-9.3,18.2c-2.9,0.5-5.9-0.3-8.7-1.1c-23.9-6.9-46.7-17.7-71-23.3
	c-32.5-7.5-66.4-5.5-99.4-10.3c-84.7-12.2-156.1-67.1-227.8-115.5c-11.9,78.4-28.5,156.1-49.6,232.5c-7.7,5-19.3,2.4-24.1-5.5
	c-1.7-2.8-2.6-6.1-4.3-9c-8.2-13.9-28.4-11.4-44.3-8.9c-34.1,5.4-69.5,2.4-97.9-6.6c-12.4,24.5-24.7,49-37.1,73.5
	c-9-3.6-18-7.3-27-10.9c-28.8,82.3-57.6,164.6-86.4,246.9c3.8,1.2,4.3-6.4,0.5-7.5c-3.8-1.1-7.5,2-10.3,4.8
	c-51.6,51.4-103.2,102.8-154.9,154.3c-10.3,10.2-20.7,20.6-27.7,33.3c-15.5,28-11,65.7,5.7,89.4c-11.2,33.5-3.7,92-36.6,104.9
	c-10.9,4.2-29.3-23.5-32.2-34.8c-2.9-11.3-1.6-23.2-0.3-34.8c2.1-18.6,4.2-37.2,6.3-55.7c1.4-12.7,2.9-25.7,8.8-37.1
	s16.9-21,29.7-21.2c2.2,13.6,4.4,27.2,6.6,40.8c0.8,4.7,1.7,9.7,5.1,13c5.2,4.9,13.6,3.6,20.4,1.6
	c50.6-15.1,170.4-118.6,219.4-172.1c49-53.6,71.5-100.6,105.3-164.8c14.4-27.3,28.8-54.6,43.2-81.9c3.5-6.7,7.1-14.6,3.7-21.4
	c-3.1,3.3-6.2,6.7-9.2,10c21.4,38.2,32.7,102.3,54.1,140.5c21.1,37.6,32.4,68,52.2,123.4c17.3,95.9,34.7,192.3,68.8,283.5
	c1.2,3.3,2.7,6.8,5.7,8.5c3.5,2,7.8,0.9,11.6-0.3c18.2-5.8,35.5-14.4,58.3-25.6c-40.2-202.6-80.4-405.1-120.3-605.2
	c-7.8-21.5-30.5-37.5-30.7-60.3c-0.1-8.3,2.9-16.3,5.8-24c17.4-46.3,32.1-93.6,44.2-141.6c11.9-47.4,21.3-97.3,9.5-146.3
	c-2.2-4-4.3-8-6.5-12c-11.5,1.9-14.5,21.3-26.1,21.1c-4-0.1-7.5-2.7-10.6-5.3c-16.1-13.7-29.8-30.1-40.2-48.4
	c16.3-9.3,17.9-31.8,17.6-50.6c-0.3-17.4-0.7-34.7-1-52.1c-0.3-13.3-0.5-27,4.4-39.4s16-23.3,29.3-23.5c5.6-0.1,11.1,1.6,16.7,2
	c7.2,0.4,14.3-1.4,21.4-2.3c21-2.6,42.1,3,62.6,8.6c8.7,2.4,18,5.1,23.7,12.2c5.7,7,5,19.7-9.4,32.6c-6.8,31.7-16.2,62.8-27.8,93
	c-4.5,11.6-10.5,24.3-22.1,28.8c-14.9,5.7-30.6-4.7-43.2-14.4c-5.3-4.1-10.7-8.4-14.2-14.2c-6.6-11-4.7-24.9-4.8-37.8
	s-4.2-28-16.3-32.3c-13.3,6.3-15.9,27.4-4.6,36.8c3.8,3.2,9.7,4.9,13.7,2.1c6.3-4.4,2.9-14.1,1.8-21.7c-1-7.2,1.1-15.1,6.8-19.7
	c5.7-4.6,15-4.5,19.6,1.1c-4.8-8.1-1.7-19.3,5.3-25.7c6.9-6.4,16.7-9,26.1-9.6c13.7-1,27.5,1.3,40.7,4.9c3,0.8,6.3,1.9,7.9,4.6
	c1.1,1.8,1.2,4.1,1.3,6.3c0.5,27-4.8,54-15.4,78.8c-4.5,10.4-10.1,20.8-19,27.9c-8.8,7.1-21.5,10.5-31.9,5.8
	c-5.2,10.1-7.6,21.7-6.8,33c0.5,7.8,2.5,15.5,1.8,23.2c-0.7,7.8-4.8,16-12.3,18.2c-6.3-8.8-14-16.5-22.8-22.7
	c-9.4,10.9-21.1,20-34,26.4c-13-22.3-21.8-47.1-25.5-74.9c-33.1-4.2-67.3-8.4-99.5,0.7c-13.5,3.8-26.2,9.9-38.8,16
	c-35.6,17.1-71.4,34.2-104.2,56.4c-7.5,5-14.8,10.4-20.6,17.4c-5.9,7.1-9.8,15.6-13.6,24c-26.2,59.1-44.9,121.6-55.7,185.3
	c15-6,33.9-0.1,43.9,11.8c4.1,17.3,8.2,34.6,12.4,51.9c-6.3,3.1-13.4,4.5-20.4,4c-0.7-2.8-0.5-5.8,0.7-8.4
	c1.9,9.1-0.2,18.9-5.6,26.5c-8.9-5.4-17.9-10.9-26.8-16.3c-3.4-2.1-6.9-4.2-9.3-7.4c-3.5-4.7-3.9-11-4.3-16.8
	c-0.6-9.9-1.1-20.2,2.3-29.5c3.4-9.3,11.7-17.6,21.7-17.7c11.8-0.1,24.3,10.7,34,4c3.6-2.5,5.5-6.7,7.2-10.7
	c9.8-23.2,19.7-46.4,29.5-69.6c10.7-25.4,21.6-51.2,25-78.5c-5.7-0.3-11.1,4.8-11.1,10.5c45.3-15.5,88.7-36.8,131-61.1
	c-30.8,83.3-63.2,169.2-125.4,232.6c-2,2-4.1,4.2-4.6,6.9c-0.6,2.9,0.6,5.8,1.8,8.5c13.6,31.8,29.4,66,60,82.1
	c29.1-19.6,53.6-45.8,71.2-76.1c10.7-18.3,18.8-38.1,26.8-57.7c22-53.5,43.9-107,63.7-158.9c7.1-39.4,12-79.3,14.7-119.2
	c2.8,10.7,9.1,20.2,15.3,29.4c10,14.9,19.9,29.7,29.9,44.6c1.7,2.6,3.5,5.2,6,6.9c3.5,2.5,8.4,3,12.4,1.3c0,0,2.5,9.7-1.6,13.5
	c-14.3,71-34.4,140.9-60,208.7c-9.2,24.4-20.5,50.1-42.7,63.7c-2.6-13.7-10.5-26.5-9.3-40.4c0.8-9.6,5.8-18.2,10.3-26.7
	c33-62.4,41.4-135.1,70.7-199.4c3.6-7.9,8.6-16.6,17-18.6c6.7-1.6,15.3,0.9,19.4-4.6c2.8-3.8,1.4-9.3,3.4-13.5
	c1.9-4,6.2-6.1,8.8-9.6c8.1-11-1.9-32.3,10.7-37.4c3.6-1.5,7.6-0.6,11.3,0.5c51.3,15.4,72.9,76.3,122.6,115.7
	c26.5,20.5,53,41.1,79.4,61.6c-3.8-2.9-7.7-5.8-11.5-8.7c63.1-14.2,123.3,31.4,187.2,40.9c9.1,1.4,18.6,1.9,27.2-1.3
	c8.9-3.4,15.8-10.5,22.7-17.2c34.6-33.4,76.8-59.1,117.3-65c-2.7,60.1-5.6,121-23.8,178.4c-8.5,26.6-20.4,53.5-17.5,81.3
	c2.8,27.8,28.2,55.8,55.3,48.9c28-7.2,36-42.4,38.7-71.2c7.1-75.1,14.2-150.3,21.3-225.4c2.3-24,4.5-48.8-2.4-71.9
	s-25.2-44.6-49.1-47.7c-27.5-3.6-51.7,16.7-71.9,35.6c14.9-0.1,23.1,19.7,17.6,33.5c-5.5,13.8-19.1,22.4-31.8,30.1
	c-37.6,22.6-75.3,45.2-112.9,67.9c-9.6,5.8-19.5,11.7-30.6,13.7c-11.3,2.1-22.9-0.1-34.2-2.2c-36.8-7-73.6-13.9-110.4-20.9
	c0,0-21.3-6.5-24.5-8c-35.9-35.6-72.7-70.3-110.4-103.9c-6.3-5.6-15-11.5-22.4-7.5c-4.3,2.3-6.3,7.3-7.9,11.9
	c-29.8,85.4-13.1,186.8-64.2,261.3c-13.1,19.1-30.5,36.1-36.6,58.5c-7.6,27.5,3.7,56.3,15.5,82.3c23.7,52.4,51,108.3,40.2,164.9
	c-2.6,13.7-7.4,27.5-4.6,41.2c2.5,12.1,10.7,22.1,18.1,32.1c27.3,36.5,47.3,138.4,57.7,187.2c10.2,30.6,12.8,63.8,7.7,95.6
	c-25.2-3.1-43.2,27.6-39.6,52.7c1.5,10.7,6.1,21.6,15.1,27.6c12.8,8.4,30,4.2,44.2-1.6c40.1-16.5,116-55.5,101.8-78.6
	c-4.7-7.7-81.4-0.5-119.1,14c-9.2,3.5-18.8,8.2-23.3,17c-6.8,13.3,1.1,28.9,2.7,43.7c0.4,3.7,0.3,7.9-2,10.8
	c-2.7,3.4-7.5,4.1-11.8,4.6c-117.6,12.5-236.5,13.4-354.3,2.6c12,15.6,35.9,12.1,55.3,8.7c41.6-7.3,84-7,126.2-6.7
	c126.8,0.9,1843.6,11.8,1970.4,12.7l12.4-20.3c0,0,35.6-52.2,35.9-55c12.8-15.9,8.4-39.3,0.7-58.1c-7.8-18.8-18.5-37.9-16.4-58.1
	c2.3-22.7,21.5-41.5,43.6-47.1c22.1-5.7,46,0.3,65.4,12.2c3.9,2.4,8.5,5.1,12.7,3.4c3.4-1.4,5-5.2,6.4-8.6
	c32-82.1,62.1-165,97.9-254.8c42-120,86.1-239.4,132.2-357.9c3.8-9.7,7.8-19.8,15.3-27c15.2-14.6,39-13.2,60.1-13.3
	c61.6-0.3,121.7-21.8,175.2-52.3c53.5-30.5,101.4-70,148.8-109.3c12.1-10,24.5-20.5,31.6-34.5c7-14,7.3-32.8-2.4-39.8
	c-38.7-7.2-80.8,8.8-105,39.9c-6.1,7.9-11.2,16.8-13,26.5c-1.9,10.1-0.1,20.5,2.2,30.5c37.2,160.3,124.5,199.2,119.1,260.5
	c-22.8,1.8-69.2-14.3-85-72.3c0,0-24.6-75.1-35.8-91.7c-4.8-7-9.7-14.4-10.5-22.8c-1.9-18,14.5-31.9,28.7-43.2
	c33.2-26.4,62.8-57.2,88-91.3c24.1,19.3,26.5,54.4,26.7,85.3c0.3,58.4-0.2,117.4,13.5,174.2c3.2,13.4,6.8,29-1.8,39.8l-15.2-0.2
	c0,0-16,1-13.5-4c-7,11.7-14.2,26.2-7.7,38.1c4,7.5,12.2,11.4,19.1,16.5c19.7,14.6,28.6,39.3,36.5,62.6c12.8,38,25.7,76,37.7,120.7
	c12.1,47.3,26.1,94.1,41.8,140.4c5.7,16.8,11.8,33.8,23,47.6c9.1,11.3,21.1,19.8,32.2,29.1c19.8,16.6,37.2,36.2,53.3,61.5
	c23.8,26,47.6,52,71.4,78c6.1,6.6,12.3,13.5,15.4,21.9c3.3,8.9,2.7,18.7,1.4,28.1c-4.8,34.6-19.5,67.9-42,94.7
	c-10.3,12.3-27,24.1-41.1,16.4c-9.9-5.3-13.3-18.4-11.1-29.5s8.6-20.6,14.3-30.3c11.2-19.2,19.9-42.7,11.3-63.1
	c-10.7-25.5-42-33.8-64.4-50c-27.1-19.6-41.6-51.6-59-80.2c-23.2-37.9-53-71.2-78.3-107.7c-7.1-10.3-14.1-21.2-16.1-33.5
	c-1.8-10.4,0.1-21.1,0.9-31.7c5.5-72.1-43.3-144.9-112.1-167.2c-23.6,76.1-47.1,152.1-70.7,228.2c-3.6,11.6-7.2,23.7-5.8,35.7
	c1.2,10.1,5.7,19.3,9.7,28.7c19,45.1,23.8,96.1,8,144.5c2.2,27.8,4.4,55.5,6.7,83.3c0.5,6.7,1.1,13.6-1,20
	c-9.1,29-61.8,32.3-60.5,62.7c7.2,10.5,22.2,11.5,34.9,11.4c217.7-2,1275.3,4.5,1492.9-0.3"/>
</svg>
