<svg height="512" viewBox="0 0 256 256" width="512" xmlns="http://www.w3.org/2000/svg"><g id="Layer_1"><g><path d="m187.28 188.79-24.48 24.54c-1.88 1.88-4.42 2.94-7.08 2.94h-29.08c-2.13 0-4.19.67-5.91 1.93l-41.26 30.16h-73.86v-15.02l77.47-126.14 11.7-19.05 6.08 7.06 9.26-10.75 9.26 10.75 6.08-7.06 18.47 30.06c-4.76 7.27.44 17.25 9.4 17.25-5.9 0-10.68 4.78-10.68 10.68v25.54c0 2.76 2.24 5 5 5h16.35v-25.79z" fill="#72c2e9"/><path d="m14.302 238.296c-1.177-.723-1.545-2.262-.822-3.438l2.617-4.261c.723-1.178 2.262-1.545 3.438-.822 1.177.723 1.545 2.262.822 3.438l-2.617 4.261c-.723 1.176-2.262 1.545-3.438.822zm7.849-12.782c-1.176-.723-1.544-2.262-.822-3.439l73.158-119.118c.723-1.176 2.262-1.545 3.438-.822 1.177.723 1.545 2.262.822 3.439l-73.157 119.118c-.722 1.175-2.259 1.546-3.439.822z" fill="#c9e4f9"/><path d="m83.08 107.2-77.47 126.14v-97.82l27.83-60.44 16.61-36.08 16.85 34.79 12.56 25.94z" fill="#72c2e9"/><path d="m14.564 139.983c-1.254-.578-1.802-2.063-1.225-3.317l2.091-4.542c.579-1.254 2.064-1.801 3.317-1.225 1.254.578 1.802 2.063 1.225 3.317l-2.091 4.542c-.578 1.253-2.062 1.802-3.317 1.225zm6.274-13.625c-1.254-.578-1.803-2.063-1.226-3.316l15.092-32.778c.579-1.254 2.065-1.801 3.316-1.226 1.254.578 1.803 2.063 1.226 3.316l-15.092 32.778c-.579 1.257-2.065 1.802-3.316 1.226z" fill="#c9e4f9"/><path d="m83.08 107.2-77.47 126.14v-13.36l73.85-120.25z" fill="#4aa5c8"/><path d="m84.222 214.049c-3.683-1.217-7.487-2.281-9.623-11.48-1.967 8.473-5.118 9.992-9.623 11.48 7.347 2.428 8.455 6.447 9.623 11.48 2.013-8.676 5.343-10.065 9.623-11.48z" fill="#f0c020"/><path d="m171.341 85.514c-3.683-1.217-7.487-2.281-9.623-11.481-1.967 8.473-5.118 9.992-9.623 11.481 7.347 2.428 8.455 6.447 9.623 11.48 2.014-8.676 5.344-10.066 9.623-11.48z" fill="#f0c020"/><path d="m95.205 33.426c-3.683-1.217-7.487-2.281-9.623-11.481-1.967 8.473-5.118 9.992-9.623 11.481 7.347 2.428 8.455 6.447 9.623 11.48 2.013-8.676 5.343-10.066 9.623-11.48z" fill="#f0c020"/><circle cx="104.258" cy="148.757" fill="#ffb69f" r="11.191"/><path d="m114.932 197.51h-16.349c-2.761 0-5-2.239-5-5v-21.887c0-5.895 4.779-10.675 10.675-10.675 5.895 0 10.675 4.779 10.675 10.675v26.887z" fill="#fc5d3d"/><path d="m164.52 124.27c0 6.2-5.02 11.19-11.19 11.19-8.96 0-14.16-9.98-9.4-17.25 1.98-3.09 5.45-5.13 9.4-5.13 6.18 0 11.19 5.01 11.19 11.19z" fill="#ffb69f"/><path d="m164 146.14v30.54h-16.35c-2.76 0-5-2.24-5-5v-25.54c0-5.9 4.78-10.68 10.68-10.68 5.871 0 10.67 4.778 10.67 10.68z" fill="#fc5d3d"/><path d="m213.587 139.466h-16.349c-2.761 0-5-2.239-5-5v-25.691c0-5.895 4.779-10.675 10.675-10.675 5.895 0 10.675 4.779 10.675 10.675v30.691z" fill="#fc5d3d"/><circle cx="198.953" cy="86.909" fill="#ffb69f" r="11.191"/><path d="m248.36 127.54v120.82h-168.89l41.26-30.16c1.72-1.26 3.78-1.93 5.91-1.93h29.08c2.66 0 5.2-1.06 7.08-2.94l24.48-24.54z" fill="#13bf6d"/><circle cx="177.397" cy="33.064" fill="#f0c020" r="17.397"/><path d="m125.46 88.15-6.08 7.06-9.26-10.75-9.26 10.75-6.08-7.06 15.34-24.97z" fill="#efefef"/><path d="m66.9 73.79-8.03 9.32-9.26-10.75-9.26 10.75-6.91-8.03 16.61-36.08z" fill="#efefef"/><path d="m69.333 21.5h-19.282v-13.084h19.282l-5.25 6.542z" fill="#fc5d3d"/><g fill="#129d6d"><path d="m196.87 212.29h-2.07c-1.38 0-2.51-1.12-2.51-2.5s1.13-2.5 2.51-2.5h2.07c1.38 0 2.5 1.12 2.5 2.5s-1.12 2.5-2.5 2.5z"/><path d="m226.67 226.5h-2.08c-1.38 0-2.5-1.12-2.5-2.5s1.12-2.5 2.5-2.5h2.08c1.38 0 2.5 1.12 2.5 2.5s-1.12 2.5-2.5 2.5z"/><path d="m227.71 186.5h-2.08c-1.38 0-2.5-1.12-2.5-2.5s1.12-2.5 2.5-2.5h2.08c1.37 0 2.49 1.12 2.49 2.5s-1.12 2.5-2.49 2.5z"/><path d="m153.14 236h-2.08c-1.38 0-2.5-1.12-2.5-2.5s1.12-2.5 2.5-2.5h2.08c1.37 0 2.5 1.12 2.5 2.5s-1.13 2.5-2.5 2.5z"/></g><path d="m84.998 216.398c2.254-.745 2.259-3.951 0-4.697-3.468-1.142-6.176-1.881-7.989-9.691-.59-2.545-4.229-2.538-4.818 0-1.773 7.637-4.246 8.455-7.989 9.692-2.254.745-2.259 3.951 0 4.697 6.218 2.054 6.922 5.092 7.989 9.691.593 2.551 4.227 2.55 4.819 0 1.77-7.638 4.378-8.5 7.988-9.692zm-10.35 1.802c-.876-1.476-2.093-2.873-3.872-4.094 1.44-.988 2.729-2.329 3.832-4.313 1.116 2.01 2.386 3.34 3.699 4.279-1.369.962-2.598 2.253-3.659 4.128z"/><path d="m151.32 83.166c-2.254.745-2.259 3.951 0 4.697 6.218 2.054 6.922 5.092 7.989 9.691.593 2.551 4.227 2.55 4.819 0 1.771-7.637 4.38-8.499 7.989-9.691 2.254-.745 2.259-3.951 0-4.697-3.468-1.142-6.176-1.881-7.989-9.691-.59-2.545-4.229-2.538-4.818 0-1.774 7.637-4.247 8.454-7.99 9.691zm10.408-1.908c1.116 2.01 2.386 3.34 3.699 4.279-1.369.962-2.598 2.253-3.659 4.128-.876-1.476-2.093-2.873-3.872-4.094 1.44-.988 2.729-2.329 3.832-4.313z"/><path d="m83.173 45.465c.593 2.551 4.227 2.55 4.819 0 1.771-7.637 4.379-8.499 7.989-9.691 2.254-.745 2.259-3.951 0-4.697-3.468-1.142-6.176-1.881-7.989-9.691-.59-2.545-4.229-2.538-4.818 0-1.773 7.637-4.246 8.455-7.989 9.692-2.254.744-2.259 3.95 0 4.697 6.216 2.053 6.921 5.091 7.988 9.69zm2.419-16.296c1.116 2.01 2.386 3.34 3.699 4.279-1.369.962-2.598 2.253-3.659 4.128-.876-1.476-2.093-2.873-3.872-4.094 1.439-.988 2.728-2.328 3.832-4.313z"/><circle cx="114.93" cy="182.98" r="2.5"/><path d="m208.069 164.39c-1 1.021-.948 2.583.011 3.54.98.981 2.572.969 3.529-.01 1.018-.996.937-2.594 0-3.53-.949-.94-2.589-.94-3.54 0z"/><path d="m215.14 160.85c.957.958 2.538.993 3.54-.01l31.45-31.53c1.017-1.041.932-2.617-.01-3.54-.94-.94-2.59-.94-3.53 0l-24.143 24.212-.857-10.712c-.11-1.32-1.18-2.3-2.49-2.3h-3.01v-27.218l21.02-22.532c.94-1.01.881-2.59-.119-3.53-.971-.9-2.631-.85-3.54.12l-18.436 19.77c-1.294-2.997-3.671-5.413-6.631-6.773 8.931-8.517 2.863-23.587-9.433-23.587-14.821 0-19.018 20.427-5.379 26.276-2.366 2.383-3.831 5.66-3.831 9.274v1.281l-24.175 31.255c-.922-2.324-2.484-4.321-4.469-5.782 3.574-2.474 5.923-6.594 5.923-11.254 0-11.808-13.993-18.012-22.736-10.261l-32.034-52.139c-.975-1.58-3.284-1.583-4.26 0l-24.65 40.13-2.39-4.92c-.58-1.2-2.13-1.75-3.34-1.16-1.22.59-1.77 2.08-1.16 3.32v.02l3.782 7.798-76.752 124.972c-.723 1.177-.359 2.716.82 3.44 1.217.731 2.721.337 3.44-.82 82.98-135.112 73.387-119.493 87.381-142.275l3.839 4.465c.96 1.1 2.84 1.11 3.79 0l7.37-8.55 7.37 8.55c.983 1.149 2.769 1.169 3.79 0l3.84-4.467 15.909 25.891c-3.098 6.224-.802 13.57 4.507 17.27-2.946 2.17-4.963 5.525-5.323 9.365l-24.226 19.758c-.94-1.84-2.299-3.426-3.952-4.642 11.014-7.632 5.594-24.945-7.775-24.945-13.358 0-18.796 17.306-7.777 24.944-2.433 1.787-4.227 4.381-4.988 7.389-5.917-4.547-10.399-10.598-12.975-17.652-.47-1.26-1.95-1.95-3.21-1.49-1.299.474-1.965 1.911-1.49 3.21 3.45 9.422 9.333 16.374 17.26 21.812v19.228c0 2.887 1.642 5.391 4.034 6.645l-11.581 43.135-5.543 4.051c-1.177.888-1.304 2.441-.54 3.5.78 1.062 2.323 1.382 3.49.54 6.669-4.874 31.362-22.919 41.27-30.16 1.29-.95 2.83-1.45 4.43-1.45h29.08c3.35 0 6.49-1.31 8.85-3.67 8.282-8.305 31.181-31.267 39.98-40.09.98-.98.97-2.57 0-3.54-.95-.94-2.59-.94-3.54 0l-3.034 3.043 3.239-32.543h15.576l1.017 12.666-2.667 2.675c-1.003.979-.969 2.569-.001 3.537zm-95.76-69.47-7.37-8.55c-.94-1.11-2.84-1.1-3.78 0l-7.37 8.55-2.994-3.473 12.254-19.947 12.255 19.946zm70.88-4.47c.01-4.78 3.91-8.68 8.69-8.69 4.779.01 8.68 3.91 8.689 8.69-.01 4.78-3.91 8.68-8.689 8.69-4.78-.01-8.68-3.91-8.69-8.69zm-45.63 37.3c0-4.482 3.691-8.63 8.7-8.63 4.779.01 8.68 3.91 8.689 8.69-.01 4.79-3.91 8.69-8.689 8.69-5.42-.01-8.681-4.46-8.7-8.75zm.519 21.93c.011-4.5 3.681-8.17 8.181-8.18 4.5.01 8.16 3.68 8.17 8.18v28.04h-13.851c-1.369 0-2.5-1.13-2.5-2.5zm-49.579 2.62c0-4.79 3.9-8.69 8.69-8.69 4.78 0 8.68 3.9 8.69 8.69-.01 4.78-3.91 8.68-8.69 8.69-4.79-.01-8.69-3.91-8.69-8.69zm23.69 67.42-29.284 21.4 10.087-37.571h23.707l3.03 13.76c-2.948.001-5.442.868-7.54 2.411zm12.656-2.41-3.696-16.8c-.25-1.13-1.28-1.96-2.44-1.96h-8.35v-2.03c0-1.38-1.12-2.5-2.5-2.5-1.37 0-2.49 1.11-2.5 2.48v.02 2.03h-13.85c-1.37 0-2.5-1.12-2.5-2.5 0-12.732 0-9.078 0-21.89.01-4.5 3.68-8.16 8.18-8.17 4.5.01 8.16 3.67 8.17 8.17v2.36c0 1.38 1.12 2.5 2.5 2.5s2.5-1.12 2.5-2.5c0-3.199.015-2.075-.034-3.033l22.754-18.551v20.283c0 4.061 3.26 7.379 7.295 7.49l-9.78 34.601zm29.114-2.2c-1.4 1.4-3.33 2.2-5.311 2.2h-12.861l9.776-34.59h11.166l5.43.85 3.897 19.408zm16.339-16.389-3.579-17.842c-.2-1.02-1.03-1.82-2.061-1.98l-5.229-.819v-14.803l17.615 28.678zm15.03-15.075-4.652 4.666-21.247-34.59v-1.906l23.24-30.056v16.249c0 3.775 2.81 6.899 6.455 7.417zm18.691-43.136h-13.85c-1.381-.01-2.5-1.13-2.5-2.5v-25.7c.01-4.49 3.67-8.16 8.17-8.17 4.5.01 8.17 3.68 8.18 8.17z"/><path d="m177.399 52.96c10.971 0 19.891-8.93 19.891-19.9 0-10.96-8.92-19.89-19.891-19.89-10.97 0-19.899 8.93-19.899 19.89 0 10.97 8.93 19.9 19.899 19.9zm0-34.79c8.2.01 14.881 6.7 14.891 14.89-.01 8.2-6.69 14.89-14.891 14.9-8.199-.01-14.88-6.7-14.899-14.9.02-8.19 6.7-14.88 14.899-14.89z"/><path d="m72.09 90.26c.587 1.188 1.996 1.778 3.35 1.16 1.24-.6 1.76-2.1 1.16-3.34-.65-1.316-2.192-1.733-3.34-1.16-1.24.6-1.77 2.1-1.17 3.34z"/><path d="m4.56 137.79c1.37.604 2.777-.056 3.32-1.22 0-.01 0-.01 0-.01l26.2-56.898 4.37 5.078c.96 1.11 2.85 1.1 3.79 0l7.37-8.55 7.37 8.55c.968 1.137 2.761 1.18 3.79 0l5.541-6.439 1.429 2.949c.571 1.197 1.984 1.789 3.34 1.17 1.24-.6 1.76-2.1 1.16-3.34l-19.69-40.654v-14.426h16.78c2.104 0 3.27-2.425 1.95-4.07l-3.99-4.97 3.99-4.98c1.324-1.651.142-4.06-1.95-4.06h-19.28c-1.383 0-2.5 1.127-2.5 2.5v30.029l-44.21 96.021c-.592 1.289-.014 2.744 1.22 3.32zm47.99-126.88h11.57l-1.99 2.48c-.72.91-.72 2.23 0 3.13l1.99 2.48h-11.57zm-2.44 33.94 13.829 28.552-5.069 5.878-7.37-8.55c-1.003-1.174-2.807-1.143-3.78 0l-7.37 8.55-3.968-4.617z"/></g></g></svg>